{
	"asset":{
		"generator":"Khronos glTF Blender I/O v5.0.21",
		"version":"2.0"
	},
	"extensionsUsed":[
		"KHR_materials_specular"
	],
	"scene":0,
	"scenes":[
		{
			"name":"Scene",
			"nodes":[
				66
			]
		}
	],
	"nodes":[
		{
			"name":"mixamorig9:HeadTop_End",
			"translation":[
				0,
				20.743392944335938,
				7.774619102478027
			]
		},
		{
			"children":[
				0
			],
			"name":"mixamorig9:Head",
			"translation":[
				0,
				5.0166015625,
				1.8802218437194824
			]
		},
		{
			"children":[
				1
			],
			"name":"mixamorig9:Neck",
			"rotation":[
				0.02275117300450802,
				0,
				0,
				0.9997411370277405
			],
			"scale":[
				1,
				0.9999998807907104,
				0.9999998807907104
			],
			"translation":[
				0,
				17.647239685058594,
				-7.152557373046875e-07
			]
		},
		{
			"name":"mixamorig9:LeftHandThumb4",
			"rotation":[
				1.1175872671742582e-08,
				-9.313227966600834e-10,
				5.494804256045427e-08,
				1
			],
			"scale":[
				0.9999999403953552,
				0.9999998211860657,
				0.9999998807907104
			],
			"translation":[
				0.5028042793273926,
				2.9867043495178223,
				3.349781036376953e-05
			]
		},
		{
			"children":[
				3
			],
			"name":"mixamorig9:LeftHandThumb3",
			"rotation":[
				-0.02870025299489498,
				-7.136870863178046e-07,
				-3.7361428439908195e-07,
				0.9995880722999573
			],
			"scale":[
				1,
				0.9999999403953552,
				0.9999999403953552
			],
			"translation":[
				0.10523486137390137,
				3.407050371170044,
				-3.361701965332031e-05
			]
		},
		{
			"children":[
				4
			],
			"name":"mixamorig9:LeftHandThumb2",
			"rotation":[
				0.06639295071363449,
				2.1747806044913887e-07,
				1.3954064570498304e-07,
				0.9977935552597046
			],
			"scale":[
				0.9999999403953552,
				0.9999997615814209,
				0.9999998211860657
			],
			"translation":[
				-0.6080420017242432,
				3.4306986331939697,
				8.821487426757812e-06
			]
		},
		{
			"children":[
				5
			],
			"name":"mixamorig9:LeftHandThumb1",
			"rotation":[
				0.1365620493888855,
				0.04187409579753876,
				0.2901482582092285,
				0.9462617635726929
			],
			"scale":[
				1,
				1,
				0.9999999403953552
			],
			"translation":[
				-2.935163974761963,
				2.980335235595703,
				1.2125389575958252
			]
		},
		{
			"name":"mixamorig9:LeftHandIndex4",
			"rotation":[
				-3.259629366425543e-08,
				5.308539385850963e-08,
				-6.9849201977945086e-09,
				1
			],
			"scale":[
				0.9999999403953552,
				0.9999998807907104,
				0.9999998807907104
			],
			"translation":[
				-0.011602401733398438,
				2.664060115814209,
				2.720952033996582e-05
			]
		},
		{
			"children":[
				7
			],
			"name":"mixamorig9:LeftHandIndex3",
			"rotation":[
				0.002707015722990036,
				-2.3376284730147745e-07,
				-3.1665084065934934e-07,
				0.9999963641166687
			],
			"scale":[
				1,
				0.9999998807907104,
				0.9999999403953552
			],
			"translation":[
				-0.012113094329833984,
				3.0680618286132812,
				1.0609626770019531e-05
			]
		},
		{
			"children":[
				8
			],
			"name":"mixamorig9:LeftHandIndex2",
			"rotation":[
				0.07362476736307144,
				1.0038961306690908e-07,
				1.975107437601764e-07,
				0.9972860217094421
			],
			"scale":[
				1.0000001192092896,
				1,
				1.0000001192092896
			],
			"translation":[
				0.023713231086730957,
				3.3193750381469727,
				-2.969801425933838e-05
			]
		},
		{
			"children":[
				9
			],
			"name":"mixamorig9:LeftHandIndex1",
			"rotation":[
				0.01112243440002203,
				0.0006150564295239747,
				0.05520480126142502,
				0.9984129071235657
			],
			"translation":[
				-3.5721306800842285,
				9.847447395324707,
				0.1430906504392624
			]
		},
		{
			"name":"mixamorig9:LeftHandMiddle4",
			"rotation":[
				6.28642649047606e-09,
				6.51925713412993e-09,
				1.5832481992106295e-08,
				1
			],
			"scale":[
				1.0000001192092896,
				1.0000001192092896,
				1.0000001192092896
			],
			"translation":[
				0.0045021772384643555,
				2.917961597442627,
				4.909932613372803e-06
			]
		},
		{
			"children":[
				11
			],
			"name":"mixamorig9:LeftHandMiddle3",
			"rotation":[
				-0.0563700906932354,
				-9.934383626841736e-08,
				-1.5111454843008687e-07,
				0.9984099268913269
			],
			"scale":[
				0.9999998807907104,
				1,
				0.9999997615814209
			],
			"translation":[
				-0.017870068550109863,
				3.274610757827759,
				-3.5837292671203613e-06
			]
		},
		{
			"children":[
				12
			],
			"name":"mixamorig9:LeftHandMiddle2",
			"rotation":[
				0.07446500658988953,
				-8.405240059516927e-09,
				1.1463814786338844e-07,
				0.9972236156463623
			],
			"scale":[
				0.9999998807907104,
				0.9999998211860657,
				0.9999998211860657
			],
			"translation":[
				0.013366460800170898,
				3.5206856727600098,
				-1.5616416931152344e-05
			]
		},
		{
			"children":[
				13
			],
			"name":"mixamorig9:LeftHandMiddle1",
			"rotation":[
				0.0297977477312088,
				0.0003129611723124981,
				0.01050147321075201,
				0.9995007514953613
			],
			"scale":[
				1,
				0.9999998211860657,
				1
			],
			"translation":[
				-1.020058035850525,
				10.08126163482666,
				-0.2758682370185852
			]
		},
		{
			"name":"mixamorig9:LeftHandRing4",
			"rotation":[
				3.812601345742905e-09,
				1.9790606931024968e-09,
				2.3283064365386963e-10,
				1
			],
			"scale":[
				1,
				1,
				1.0000001192092896
			],
			"translation":[
				0.02395486831665039,
				2.134333372116089,
				2.2649765014648438e-06
			]
		},
		{
			"children":[
				15
			],
			"name":"mixamorig9:LeftHandRing3",
			"rotation":[
				-0.19147436320781708,
				7.99134127760226e-08,
				2.4433637335619096e-08,
				0.9814976453781128
			],
			"translation":[
				-0.015409588813781738,
				2.8439552783966064,
				-2.6673078536987305e-05
			]
		},
		{
			"children":[
				16
			],
			"name":"mixamorig9:LeftHandRing2",
			"rotation":[
				0.026155272498726845,
				-7.406547553046039e-08,
				5.217191301198909e-08,
				0.999657928943634
			],
			"scale":[
				1,
				0.9999999403953552,
				1
			],
			"translation":[
				-0.008547663688659668,
				2.7422914505004883,
				-1.582503318786621e-05
			]
		},
		{
			"children":[
				17
			],
			"name":"mixamorig9:LeftHandRing1",
			"rotation":[
				0.09023401886224747,
				-0.004735975526273251,
				-0.05219675973057747,
				0.9945405721664429
			],
			"scale":[
				1,
				1,
				1.0000001192092896
			],
			"translation":[
				1.124192476272583,
				10.177497863769531,
				-0.24964222311973572
			]
		},
		{
			"name":"mixamorig9:LeftHandPinky4",
			"rotation":[
				3.492457434361995e-10,
				-1.6298145055770874e-09,
				1.6298145055770874e-09,
				1
			],
			"scale":[
				1,
				0.9999999403953552,
				1
			],
			"translation":[
				0.010783672332763672,
				1.7961230278015137,
				-1.633167266845703e-05
			]
		},
		{
			"children":[
				19
			],
			"name":"mixamorig9:LeftHandPinky3",
			"rotation":[
				-0.12229152023792267,
				5.747490483543061e-09,
				4.9850683581098565e-08,
				0.9924942255020142
			],
			"scale":[
				0.9999999403953552,
				1,
				0.9999999403953552
			],
			"translation":[
				-0.014136791229248047,
				2.201108694076538,
				3.6716461181640625e-05
			]
		},
		{
			"children":[
				20
			],
			"name":"mixamorig9:LeftHandPinky2",
			"rotation":[
				0.07237942516803741,
				-6.022827392371255e-08,
				-3.33473224145564e-07,
				0.9973771572113037
			],
			"scale":[
				1,
				0.9999999403953552,
				1
			],
			"translation":[
				0.003349781036376953,
				2.641688585281372,
				4.172325134277344e-07
			]
		},
		{
			"children":[
				21
			],
			"name":"mixamorig9:LeftHandPinky1",
			"rotation":[
				0.07749135047197342,
				-0.0018901291768997908,
				-0.024308372288942337,
				0.9966948628425598
			],
			"scale":[
				1,
				0.9999999403953552,
				1
			],
			"translation":[
				3.4680261611938477,
				9.103464126586914,
				-0.03980410099029541
			]
		},
		{
			"children":[
				6,
				10,
				14,
				18,
				22
			],
			"name":"mixamorig9:LeftHand",
			"rotation":[
				0.05032002553343773,
				0.07355719804763794,
				0.020738547667860985,
				0.9958047866821289
			],
			"scale":[
				0.9999998807907104,
				1.0000001192092896,
				1
			],
			"translation":[
				1.1920928955078125e-07,
				23.494800567626953,
				-1.7426908016204834e-05
			]
		},
		{
			"children":[
				23
			],
			"name":"mixamorig9:LeftForeArm",
			"rotation":[
				-0.03231629729270935,
				-0.001605144701898098,
				0.04958523437380791,
				0.9982456564903259
			],
			"scale":[
				1,
				1,
				1.0000001192092896
			],
			"translation":[
				-4.76837158203125e-07,
				22.575580596923828,
				4.887580871582031e-06
			]
		},
		{
			"children":[
				24
			],
			"name":"mixamorig9:LeftArm",
			"rotation":[
				-0.15662144124507904,
				0.00359458290040493,
				-0.022661574184894562,
				0.9873921275138855
			],
			"scale":[
				1,
				1.000000238418579,
				1.000000238418579
			],
			"translation":[
				-5.960464477539063e-08,
				16.61265754699707,
				-1.9744038581848145e-05
			]
		},
		{
			"children":[
				25
			],
			"name":"mixamorig9:LeftShoulder",
			"rotation":[
				0.5739614367485046,
				0.40998825430870056,
				-0.5822669267654419,
				0.4042810797691345
			],
			"scale":[
				0.9999998807907104,
				0.9999999403953552,
				1
			],
			"translation":[
				7.849732875823975,
				14.775962829589844,
				-0.11429429054260254
			]
		},
		{
			"name":"mixamorig9:RightHandThumb4",
			"rotation":[
				-4.0978193283081055e-08,
				-5.774200317887335e-08,
				-6.239861249923706e-08,
				1
			],
			"scale":[
				1,
				1,
				0.9999999403953552
			],
			"translation":[
				-0.6107563972473145,
				2.4917032718658447,
				-8.344650268554688e-06
			]
		},
		{
			"children":[
				27
			],
			"name":"mixamorig9:RightHandThumb3",
			"rotation":[
				-0.00654270313680172,
				2.9057886763439456e-07,
				1.3644167040638422e-07,
				0.9999786019325256
			],
			"scale":[
				1.0000001192092896,
				1.0000001192092896,
				1
			],
			"translation":[
				-0.08561897277832031,
				3.2703118324279785,
				-3.814697265625e-06
			]
		},
		{
			"children":[
				28
			],
			"name":"mixamorig9:RightHandThumb2",
			"rotation":[
				0.04557046666741371,
				-6.880308660583978e-07,
				-3.7571336974906444e-07,
				0.9989611506462097
			],
			"scale":[
				0.9999999403953552,
				0.9999999403953552,
				1
			],
			"translation":[
				0.6963803768157959,
				3.6396541595458984,
				2.467632293701172e-05
			]
		},
		{
			"children":[
				29
			],
			"name":"mixamorig9:RightHandThumb1",
			"rotation":[
				0.15084627270698547,
				-0.04312826320528984,
				-0.2714953124523163,
				0.9495660662651062
			],
			"scale":[
				1,
				0.9999999403953552,
				0.9999998211860657
			],
			"translation":[
				3.0254833698272705,
				3.211674451828003,
				1.409863829612732
			]
		},
		{
			"name":"mixamorig9:RightHandIndex4",
			"rotation":[
				1.30385160446167e-08,
				5.587935447692871e-08,
				5.168840289115906e-08,
				1
			],
			"translation":[
				0.008609294891357422,
				2.4632842540740967,
				-1.0251998901367188e-05
			]
		},
		{
			"children":[
				31
			],
			"name":"mixamorig9:RightHandIndex3",
			"rotation":[
				0.01642352156341076,
				1.3226565442892024e-07,
				5.914696288300547e-08,
				0.9998651146888733
			],
			"translation":[
				0.004901528358459473,
				2.9685816764831543,
				-1.4156103134155273e-05
			]
		},
		{
			"children":[
				32
			],
			"name":"mixamorig9:RightHandIndex2",
			"rotation":[
				0.053596481680870056,
				-5.316179141345856e-08,
				1.1518388021158898e-07,
				0.9985626935958862
			],
			"scale":[
				1.0000001192092896,
				1,
				1
			],
			"translation":[
				-0.013512134552001953,
				3.0887327194213867,
				3.039836883544922e-05
			]
		},
		{
			"children":[
				33
			],
			"name":"mixamorig9:RightHandIndex1",
			"rotation":[
				0.03532581776380539,
				-0.0007252198411151767,
				-0.020510192960500717,
				0.9991651177406311
			],
			"scale":[
				0.9999999403953552,
				0.9999999403953552,
				0.9999999403953552
			],
			"translation":[
				3.771854877471924,
				10.28027057647705,
				0.09106577932834625
			]
		},
		{
			"name":"mixamorig9:RightHandMiddle4",
			"rotation":[
				-1.3969838619232178e-09,
				9.31322685637781e-10,
				1.1175872671742582e-08,
				1
			],
			"scale":[
				0.9999999403953552,
				0.9999999403953552,
				0.9999998807907104
			],
			"translation":[
				-0.003229856491088867,
				2.9082753658294678,
				2.4743378162384033e-05
			]
		},
		{
			"children":[
				35
			],
			"name":"mixamorig9:RightHandMiddle3",
			"rotation":[
				-0.04834916815161705,
				-9.790335653292459e-09,
				-1.5617919757460186e-07,
				0.9988305568695068
			],
			"scale":[
				1,
				0.9999998211860657,
				0.9999999403953552
			],
			"translation":[
				0.012757837772369385,
				3.263017416000366,
				-2.261251211166382e-05
			]
		},
		{
			"children":[
				36
			],
			"name":"mixamorig9:RightHandMiddle2",
			"rotation":[
				0.06403937190771103,
				8.935755602124118e-08,
				7.185933981190828e-08,
				0.9979473948478699
			],
			"scale":[
				0.9999999403953552,
				1,
				1
			],
			"translation":[
				-0.009527325630187988,
				3.4802002906799316,
				-5.930662155151367e-06
			]
		},
		{
			"children":[
				37
			],
			"name":"mixamorig9:RightHandMiddle1",
			"rotation":[
				0.04329284280538559,
				-0.00032734309206716716,
				-0.0075515457428991795,
				0.9990338683128357
			],
			"scale":[
				0.9999999403953552,
				0.9999999403953552,
				0.9999999403953552
			],
			"translation":[
				0.9695916175842285,
				10.202896118164062,
				-0.3715723156929016
			]
		},
		{
			"name":"mixamorig9:RightHandRing4",
			"rotation":[
				1.6644482059291477e-07,
				-5.286711157737045e-08,
				-9.42964106798172e-09,
				1
			],
			"scale":[
				1,
				0.9999998807907104,
				0.9999998807907104
			],
			"translation":[
				-0.008364737033843994,
				2.253532886505127,
				3.7670135498046875e-05
			]
		},
		{
			"children":[
				39
			],
			"name":"mixamorig9:RightHandRing3",
			"rotation":[
				-0.08195344358682632,
				6.42591331256881e-08,
				1.7427790055535297e-07,
				0.9966362118721008
			],
			"scale":[
				1,
				0.9999999403953552,
				0.9999999403953552
			],
			"translation":[
				0.0054170191287994385,
				2.6463840007781982,
				5.334615707397461e-06
			]
		},
		{
			"children":[
				40
			],
			"name":"mixamorig9:RightHandRing2",
			"rotation":[
				0.014583447016775608,
				1.368025515091631e-08,
				9.081362151164285e-08,
				0.9998936653137207
			],
			"scale":[
				1,
				0.9999998211860657,
				1
			],
			"translation":[
				0.00294378399848938,
				2.8844377994537354,
				-3.5762786865234375e-06
			]
		},
		{
			"children":[
				41
			],
			"name":"mixamorig9:RightHandRing1",
			"rotation":[
				0.09105518460273743,
				0.003900097915902734,
				0.042617421597242355,
				0.9949259161949158
			],
			"scale":[
				0.9999999403953552,
				1,
				0.9999998211860657
			],
			"translation":[
				-1.2292957305908203,
				10.39232349395752,
				-0.2087385654449463
			]
		},
		{
			"name":"mixamorig9:RightHandPinky4",
			"rotation":[
				3.4924598768526494e-09,
				-2.9103828236287654e-09,
				6.28642737865448e-09,
				1
			],
			"scale":[
				1.0000001192092896,
				0.9999999403953552,
				1
			],
			"translation":[
				-0.008436203002929688,
				1.728740930557251,
				4.0531158447265625e-05
			]
		},
		{
			"children":[
				43
			],
			"name":"mixamorig9:RightHandPinky3",
			"rotation":[
				-0.12111037969589233,
				3.7060043922565455e-08,
				-2.0476846884776023e-07,
				0.9926390051841736
			],
			"scale":[
				0.9999999403953552,
				0.9999999403953552,
				0.9999999403953552
			],
			"translation":[
				0.011957645416259766,
				2.2699167728424072,
				-1.4126300811767578e-05
			]
		},
		{
			"children":[
				44
			],
			"name":"mixamorig9:RightHandPinky2",
			"rotation":[
				0.07762474566698074,
				-2.87248465014045e-08,
				-4.086867733121835e-08,
				0.9969826936721802
			],
			"scale":[
				0.9999999403953552,
				1.0000001192092896,
				0.9999999403953552
			],
			"translation":[
				-0.003519773483276367,
				2.5351970195770264,
				1.8656253814697266e-05
			]
		},
		{
			"children":[
				45
			],
			"name":"mixamorig9:RightHandPinky1",
			"rotation":[
				0.06867384165525436,
				0.0014658549334853888,
				0.021293161436915398,
				0.9974108338356018
			],
			"scale":[
				0.9999998807907104,
				1,
				1
			],
			"translation":[
				-3.512150764465332,
				9.241801261901855,
				-0.028961598873138428
			]
		},
		{
			"children":[
				30,
				34,
				38,
				42,
				46
			],
			"name":"mixamorig9:RightHand",
			"rotation":[
				0.05152251198887825,
				-0.06517425924539566,
				-0.0243710745126009,
				0.9962448477745056
			],
			"scale":[
				1,
				0.9999999403953552,
				0.9999998807907104
			],
			"translation":[
				-8.344650268554688e-07,
				23.49344253540039,
				2.310425043106079e-05
			]
		},
		{
			"children":[
				47
			],
			"name":"mixamorig9:RightForeArm",
			"rotation":[
				-0.03227773308753967,
				0.0015174703439697623,
				-0.0469406321644783,
				0.998374879360199
			],
			"scale":[
				0.9999998807907104,
				0.9999997615814209,
				0.9999998211860657
			],
			"translation":[
				0,
				22.57061195373535,
				8.702278137207031e-06
			]
		},
		{
			"children":[
				48
			],
			"name":"mixamorig9:RightArm",
			"rotation":[
				-0.15650387108325958,
				-0.0029158296529203653,
				0.018398568034172058,
				0.9875016808509827
			],
			"scale":[
				0.9999998211860657,
				1,
				0.9999998807907104
			],
			"translation":[
				8.940696716308594e-08,
				16.612672805786133,
				4.0978193283081055e-06
			]
		},
		{
			"children":[
				49
			],
			"name":"mixamorig9:RightShoulder",
			"rotation":[
				0.5727012157440186,
				-0.41089364886283875,
				0.583429217338562,
				0.40347251296043396
			],
			"scale":[
				1,
				1.0000001192092896,
				0.9999998807907104
			],
			"translation":[
				-7.849732875823975,
				14.777459144592285,
				-0.1471414566040039
			]
		},
		{
			"children":[
				2,
				26,
				50
			],
			"name":"mixamorig9:Spine2",
			"rotation":[
				2.0489098417897367e-08,
				0,
				0,
				1
			],
			"scale":[
				1,
				0.9999998807907104,
				0.9999998807907104
			],
			"translation":[
				0,
				15.686443328857422,
				-2.384185791015625e-07
			]
		},
		{
			"children":[
				51
			],
			"name":"mixamorig9:Spine1",
			"rotation":[
				-7.450581485102248e-09,
				0,
				0,
				1
			],
			"scale":[
				1,
				0.9999998807907104,
				0.9999998807907104
			],
			"translation":[
				0,
				13.725621223449707,
				-5.960464477539062e-07
			]
		},
		{
			"children":[
				52
			],
			"name":"mixamorig9:Spine",
			"rotation":[
				-0.022751187905669212,
				0,
				0,
				0.9997411370277405
			],
			"scale":[
				1,
				1.0000001192092896,
				1
			],
			"translation":[
				0,
				11.752655029296875,
				-0.5351889729499817
			]
		},
		{
			"name":"mixamorig9:LeftToe_End",
			"rotation":[
				1.572479959577322e-07,
				1.4051329344511032e-07,
				2.195883830324874e-08,
				1
			],
			"scale":[
				1.0000001192092896,
				1,
				1
			],
			"translation":[
				1.0896474123001099e-06,
				7.870593547821045,
				-4.470348358154297e-08
			]
		},
		{
			"children":[
				54
			],
			"name":"mixamorig9:LeftToeBase",
			"rotation":[
				0.35000765323638916,
				-0.03796207904815674,
				0.014197382144629955,
				0.9358696341514587
			],
			"scale":[
				1,
				1.0000001192092896,
				1.0000001192092896
			],
			"translation":[
				8.419156074523926e-07,
				19.66216278076172,
				1.3364478945732117e-06
			]
		},
		{
			"children":[
				55
			],
			"name":"mixamorig9:LeftFoot",
			"rotation":[
				0.42701026797294617,
				-0.027915004640817642,
				0.01318986527621746,
				0.9037195444107056
			],
			"scale":[
				0.9999999403953552,
				0.9999999403953552,
				0.9999998807907104
			],
			"translation":[
				-1.0654330253601074e-06,
				35.32472229003906,
				-5.662441253662109e-07
			]
		},
		{
			"children":[
				56
			],
			"name":"mixamorig9:LeftLeg",
			"rotation":[
				0.03987789899110794,
				-0.0006474210531450808,
				-0.016303222626447678,
				0.9990713596343994
			],
			"translation":[
				1.387670636177063e-06,
				41.17905807495117,
				-2.4147448129951954e-07
			]
		},
		{
			"children":[
				57
			],
			"name":"mixamorig9:LeftUpLeg",
			"rotation":[
				0.0015506572090089321,
				0.03886481001973152,
				-0.9984490275382996,
				0.03983267396688461
			],
			"scale":[
				1.0000051259994507,
				1.0000003576278687,
				1.000004768371582
			],
			"translation":[
				9.840376853942871,
				-6.51153564453125,
				0.9519677758216858
			]
		},
		{
			"name":"mixamorig9:RightToe_End",
			"rotation":[
				-1.4176475815474987e-07,
				-6.029149517416954e-07,
				2.0183506421744823e-08,
				1
			],
			"scale":[
				1,
				0.9999999403953552,
				1
			],
			"translation":[
				1.0319054126739502e-06,
				8.012739181518555,
				5.960464477539063e-08
			]
		},
		{
			"children":[
				59
			],
			"name":"mixamorig9:RightToeBase",
			"rotation":[
				0.34233641624450684,
				0.038428571075201035,
				-0.014014357700943947,
				0.9386866688728333
			],
			"scale":[
				1,
				0.9999998807907104,
				0.9999998211860657
			],
			"translation":[
				5.811452865600586e-07,
				20.054271697998047,
				-9.424984455108643e-07
			]
		},
		{
			"children":[
				60
			],
			"name":"mixamorig9:RightFoot",
			"rotation":[
				0.43023374676704407,
				0.026983099058270454,
				-0.012866837903857231,
				0.9022224545478821
			],
			"scale":[
				1.0000001192092896,
				1.0000001192092896,
				1.0000001192092896
			],
			"translation":[
				2.0302832126617432e-07,
				35.326683044433594,
				1.1920928955078125e-07
			]
		},
		{
			"children":[
				61
			],
			"name":"mixamorig9:RightLeg",
			"rotation":[
				0.039040420204401016,
				0.0006446789484471083,
				0.016337800770998,
				0.999103844165802
			],
			"scale":[
				0.9999998807907104,
				1,
				0.9999998807907104
			],
			"translation":[
				1.7490237951278687e-06,
				41.1478385925293,
				-1.3620592653751373e-08
			]
		},
		{
			"children":[
				62
			],
			"name":"mixamorig9:RightUpLeg",
			"rotation":[
				0.0013559780782088637,
				-0.033624641597270966,
				0.9986380338668823,
				0.03986957296729088
			],
			"scale":[
				1.0000170469284058,
				1,
				1.0000120401382446
			],
			"translation":[
				-9.840376853942871,
				-6.51153564453125,
				0.24257227778434753
			]
		},
		{
			"children":[
				53,
				58,
				63
			],
			"name":"mixamorig9:Hips",
			"rotation":[
				-0.7071067690849304,
				0,
				0,
				0.7071067690849304
			],
			"scale":[
				1,
				0.9999998807907104,
				1
			],
			"translation":[
				0,
				-0.3487705588340759,
				-96.63082885742188
			]
		},
		{
			"mesh":0,
			"name":"Ch06",
			"skin":0
		},
		{
			"children":[
				65,
				64
			],
			"name":"Armature",
			"rotation":[
				0.7071068286895752,
				0,
				0,
				0.7071068286895752
			],
			"scale":[
				0.009999999776482582,
				0.009999999776482582,
				0.009999999776482582
			]
		}
	],
	"animations":[
		{
			"channels":[
				{
					"sampler":0,
					"target":{
						"node":64,
						"path":"translation"
					}
				},
				{
					"sampler":1,
					"target":{
						"node":64,
						"path":"rotation"
					}
				},
				{
					"sampler":2,
					"target":{
						"node":64,
						"path":"scale"
					}
				},
				{
					"sampler":3,
					"target":{
						"node":53,
						"path":"translation"
					}
				},
				{
					"sampler":4,
					"target":{
						"node":53,
						"path":"rotation"
					}
				},
				{
					"sampler":5,
					"target":{
						"node":53,
						"path":"scale"
					}
				},
				{
					"sampler":6,
					"target":{
						"node":52,
						"path":"translation"
					}
				},
				{
					"sampler":7,
					"target":{
						"node":52,
						"path":"rotation"
					}
				},
				{
					"sampler":8,
					"target":{
						"node":52,
						"path":"scale"
					}
				},
				{
					"sampler":9,
					"target":{
						"node":51,
						"path":"translation"
					}
				},
				{
					"sampler":10,
					"target":{
						"node":51,
						"path":"rotation"
					}
				},
				{
					"sampler":11,
					"target":{
						"node":51,
						"path":"scale"
					}
				},
				{
					"sampler":12,
					"target":{
						"node":2,
						"path":"translation"
					}
				},
				{
					"sampler":13,
					"target":{
						"node":2,
						"path":"rotation"
					}
				},
				{
					"sampler":14,
					"target":{
						"node":2,
						"path":"scale"
					}
				},
				{
					"sampler":15,
					"target":{
						"node":1,
						"path":"translation"
					}
				},
				{
					"sampler":16,
					"target":{
						"node":1,
						"path":"rotation"
					}
				},
				{
					"sampler":17,
					"target":{
						"node":1,
						"path":"scale"
					}
				},
				{
					"sampler":18,
					"target":{
						"node":0,
						"path":"translation"
					}
				},
				{
					"sampler":19,
					"target":{
						"node":0,
						"path":"rotation"
					}
				},
				{
					"sampler":20,
					"target":{
						"node":0,
						"path":"scale"
					}
				},
				{
					"sampler":21,
					"target":{
						"node":26,
						"path":"translation"
					}
				},
				{
					"sampler":22,
					"target":{
						"node":26,
						"path":"rotation"
					}
				},
				{
					"sampler":23,
					"target":{
						"node":26,
						"path":"scale"
					}
				},
				{
					"sampler":24,
					"target":{
						"node":25,
						"path":"translation"
					}
				},
				{
					"sampler":25,
					"target":{
						"node":25,
						"path":"rotation"
					}
				},
				{
					"sampler":26,
					"target":{
						"node":25,
						"path":"scale"
					}
				},
				{
					"sampler":27,
					"target":{
						"node":24,
						"path":"translation"
					}
				},
				{
					"sampler":28,
					"target":{
						"node":24,
						"path":"rotation"
					}
				},
				{
					"sampler":29,
					"target":{
						"node":24,
						"path":"scale"
					}
				},
				{
					"sampler":30,
					"target":{
						"node":23,
						"path":"translation"
					}
				},
				{
					"sampler":31,
					"target":{
						"node":23,
						"path":"rotation"
					}
				},
				{
					"sampler":32,
					"target":{
						"node":23,
						"path":"scale"
					}
				},
				{
					"sampler":33,
					"target":{
						"node":6,
						"path":"translation"
					}
				},
				{
					"sampler":34,
					"target":{
						"node":6,
						"path":"rotation"
					}
				},
				{
					"sampler":35,
					"target":{
						"node":6,
						"path":"scale"
					}
				},
				{
					"sampler":36,
					"target":{
						"node":5,
						"path":"translation"
					}
				},
				{
					"sampler":37,
					"target":{
						"node":5,
						"path":"rotation"
					}
				},
				{
					"sampler":38,
					"target":{
						"node":5,
						"path":"scale"
					}
				},
				{
					"sampler":39,
					"target":{
						"node":4,
						"path":"translation"
					}
				},
				{
					"sampler":40,
					"target":{
						"node":4,
						"path":"rotation"
					}
				},
				{
					"sampler":41,
					"target":{
						"node":4,
						"path":"scale"
					}
				},
				{
					"sampler":42,
					"target":{
						"node":3,
						"path":"translation"
					}
				},
				{
					"sampler":43,
					"target":{
						"node":3,
						"path":"rotation"
					}
				},
				{
					"sampler":44,
					"target":{
						"node":3,
						"path":"scale"
					}
				},
				{
					"sampler":45,
					"target":{
						"node":10,
						"path":"translation"
					}
				},
				{
					"sampler":46,
					"target":{
						"node":10,
						"path":"rotation"
					}
				},
				{
					"sampler":47,
					"target":{
						"node":10,
						"path":"scale"
					}
				},
				{
					"sampler":48,
					"target":{
						"node":9,
						"path":"translation"
					}
				},
				{
					"sampler":49,
					"target":{
						"node":9,
						"path":"rotation"
					}
				},
				{
					"sampler":50,
					"target":{
						"node":9,
						"path":"scale"
					}
				},
				{
					"sampler":51,
					"target":{
						"node":8,
						"path":"translation"
					}
				},
				{
					"sampler":52,
					"target":{
						"node":8,
						"path":"rotation"
					}
				},
				{
					"sampler":53,
					"target":{
						"node":8,
						"path":"scale"
					}
				},
				{
					"sampler":54,
					"target":{
						"node":7,
						"path":"translation"
					}
				},
				{
					"sampler":55,
					"target":{
						"node":7,
						"path":"rotation"
					}
				},
				{
					"sampler":56,
					"target":{
						"node":7,
						"path":"scale"
					}
				},
				{
					"sampler":57,
					"target":{
						"node":14,
						"path":"translation"
					}
				},
				{
					"sampler":58,
					"target":{
						"node":14,
						"path":"rotation"
					}
				},
				{
					"sampler":59,
					"target":{
						"node":14,
						"path":"scale"
					}
				},
				{
					"sampler":60,
					"target":{
						"node":13,
						"path":"translation"
					}
				},
				{
					"sampler":61,
					"target":{
						"node":13,
						"path":"rotation"
					}
				},
				{
					"sampler":62,
					"target":{
						"node":13,
						"path":"scale"
					}
				},
				{
					"sampler":63,
					"target":{
						"node":12,
						"path":"translation"
					}
				},
				{
					"sampler":64,
					"target":{
						"node":12,
						"path":"rotation"
					}
				},
				{
					"sampler":65,
					"target":{
						"node":12,
						"path":"scale"
					}
				},
				{
					"sampler":66,
					"target":{
						"node":11,
						"path":"translation"
					}
				},
				{
					"sampler":67,
					"target":{
						"node":11,
						"path":"rotation"
					}
				},
				{
					"sampler":68,
					"target":{
						"node":11,
						"path":"scale"
					}
				},
				{
					"sampler":69,
					"target":{
						"node":18,
						"path":"translation"
					}
				},
				{
					"sampler":70,
					"target":{
						"node":18,
						"path":"rotation"
					}
				},
				{
					"sampler":71,
					"target":{
						"node":18,
						"path":"scale"
					}
				},
				{
					"sampler":72,
					"target":{
						"node":17,
						"path":"translation"
					}
				},
				{
					"sampler":73,
					"target":{
						"node":17,
						"path":"rotation"
					}
				},
				{
					"sampler":74,
					"target":{
						"node":17,
						"path":"scale"
					}
				},
				{
					"sampler":75,
					"target":{
						"node":16,
						"path":"translation"
					}
				},
				{
					"sampler":76,
					"target":{
						"node":16,
						"path":"rotation"
					}
				},
				{
					"sampler":77,
					"target":{
						"node":16,
						"path":"scale"
					}
				},
				{
					"sampler":78,
					"target":{
						"node":15,
						"path":"translation"
					}
				},
				{
					"sampler":79,
					"target":{
						"node":15,
						"path":"rotation"
					}
				},
				{
					"sampler":80,
					"target":{
						"node":15,
						"path":"scale"
					}
				},
				{
					"sampler":81,
					"target":{
						"node":22,
						"path":"translation"
					}
				},
				{
					"sampler":82,
					"target":{
						"node":22,
						"path":"rotation"
					}
				},
				{
					"sampler":83,
					"target":{
						"node":22,
						"path":"scale"
					}
				},
				{
					"sampler":84,
					"target":{
						"node":21,
						"path":"translation"
					}
				},
				{
					"sampler":85,
					"target":{
						"node":21,
						"path":"rotation"
					}
				},
				{
					"sampler":86,
					"target":{
						"node":21,
						"path":"scale"
					}
				},
				{
					"sampler":87,
					"target":{
						"node":20,
						"path":"translation"
					}
				},
				{
					"sampler":88,
					"target":{
						"node":20,
						"path":"rotation"
					}
				},
				{
					"sampler":89,
					"target":{
						"node":20,
						"path":"scale"
					}
				},
				{
					"sampler":90,
					"target":{
						"node":19,
						"path":"translation"
					}
				},
				{
					"sampler":91,
					"target":{
						"node":19,
						"path":"rotation"
					}
				},
				{
					"sampler":92,
					"target":{
						"node":19,
						"path":"scale"
					}
				},
				{
					"sampler":93,
					"target":{
						"node":50,
						"path":"translation"
					}
				},
				{
					"sampler":94,
					"target":{
						"node":50,
						"path":"rotation"
					}
				},
				{
					"sampler":95,
					"target":{
						"node":50,
						"path":"scale"
					}
				},
				{
					"sampler":96,
					"target":{
						"node":49,
						"path":"translation"
					}
				},
				{
					"sampler":97,
					"target":{
						"node":49,
						"path":"rotation"
					}
				},
				{
					"sampler":98,
					"target":{
						"node":49,
						"path":"scale"
					}
				},
				{
					"sampler":99,
					"target":{
						"node":48,
						"path":"translation"
					}
				},
				{
					"sampler":100,
					"target":{
						"node":48,
						"path":"rotation"
					}
				},
				{
					"sampler":101,
					"target":{
						"node":48,
						"path":"scale"
					}
				},
				{
					"sampler":102,
					"target":{
						"node":47,
						"path":"translation"
					}
				},
				{
					"sampler":103,
					"target":{
						"node":47,
						"path":"rotation"
					}
				},
				{
					"sampler":104,
					"target":{
						"node":47,
						"path":"scale"
					}
				},
				{
					"sampler":105,
					"target":{
						"node":30,
						"path":"translation"
					}
				},
				{
					"sampler":106,
					"target":{
						"node":30,
						"path":"rotation"
					}
				},
				{
					"sampler":107,
					"target":{
						"node":30,
						"path":"scale"
					}
				},
				{
					"sampler":108,
					"target":{
						"node":29,
						"path":"translation"
					}
				},
				{
					"sampler":109,
					"target":{
						"node":29,
						"path":"rotation"
					}
				},
				{
					"sampler":110,
					"target":{
						"node":29,
						"path":"scale"
					}
				},
				{
					"sampler":111,
					"target":{
						"node":28,
						"path":"translation"
					}
				},
				{
					"sampler":112,
					"target":{
						"node":28,
						"path":"rotation"
					}
				},
				{
					"sampler":113,
					"target":{
						"node":28,
						"path":"scale"
					}
				},
				{
					"sampler":114,
					"target":{
						"node":27,
						"path":"translation"
					}
				},
				{
					"sampler":115,
					"target":{
						"node":27,
						"path":"rotation"
					}
				},
				{
					"sampler":116,
					"target":{
						"node":27,
						"path":"scale"
					}
				},
				{
					"sampler":117,
					"target":{
						"node":34,
						"path":"translation"
					}
				},
				{
					"sampler":118,
					"target":{
						"node":34,
						"path":"rotation"
					}
				},
				{
					"sampler":119,
					"target":{
						"node":34,
						"path":"scale"
					}
				},
				{
					"sampler":120,
					"target":{
						"node":33,
						"path":"translation"
					}
				},
				{
					"sampler":121,
					"target":{
						"node":33,
						"path":"rotation"
					}
				},
				{
					"sampler":122,
					"target":{
						"node":33,
						"path":"scale"
					}
				},
				{
					"sampler":123,
					"target":{
						"node":32,
						"path":"translation"
					}
				},
				{
					"sampler":124,
					"target":{
						"node":32,
						"path":"rotation"
					}
				},
				{
					"sampler":125,
					"target":{
						"node":32,
						"path":"scale"
					}
				},
				{
					"sampler":126,
					"target":{
						"node":31,
						"path":"translation"
					}
				},
				{
					"sampler":127,
					"target":{
						"node":31,
						"path":"rotation"
					}
				},
				{
					"sampler":128,
					"target":{
						"node":31,
						"path":"scale"
					}
				},
				{
					"sampler":129,
					"target":{
						"node":38,
						"path":"translation"
					}
				},
				{
					"sampler":130,
					"target":{
						"node":38,
						"path":"rotation"
					}
				},
				{
					"sampler":131,
					"target":{
						"node":38,
						"path":"scale"
					}
				},
				{
					"sampler":132,
					"target":{
						"node":37,
						"path":"translation"
					}
				},
				{
					"sampler":133,
					"target":{
						"node":37,
						"path":"rotation"
					}
				},
				{
					"sampler":134,
					"target":{
						"node":37,
						"path":"scale"
					}
				},
				{
					"sampler":135,
					"target":{
						"node":36,
						"path":"translation"
					}
				},
				{
					"sampler":136,
					"target":{
						"node":36,
						"path":"rotation"
					}
				},
				{
					"sampler":137,
					"target":{
						"node":36,
						"path":"scale"
					}
				},
				{
					"sampler":138,
					"target":{
						"node":35,
						"path":"translation"
					}
				},
				{
					"sampler":139,
					"target":{
						"node":35,
						"path":"rotation"
					}
				},
				{
					"sampler":140,
					"target":{
						"node":35,
						"path":"scale"
					}
				},
				{
					"sampler":141,
					"target":{
						"node":42,
						"path":"translation"
					}
				},
				{
					"sampler":142,
					"target":{
						"node":42,
						"path":"rotation"
					}
				},
				{
					"sampler":143,
					"target":{
						"node":42,
						"path":"scale"
					}
				},
				{
					"sampler":144,
					"target":{
						"node":41,
						"path":"translation"
					}
				},
				{
					"sampler":145,
					"target":{
						"node":41,
						"path":"rotation"
					}
				},
				{
					"sampler":146,
					"target":{
						"node":41,
						"path":"scale"
					}
				},
				{
					"sampler":147,
					"target":{
						"node":40,
						"path":"translation"
					}
				},
				{
					"sampler":148,
					"target":{
						"node":40,
						"path":"rotation"
					}
				},
				{
					"sampler":149,
					"target":{
						"node":40,
						"path":"scale"
					}
				},
				{
					"sampler":150,
					"target":{
						"node":39,
						"path":"translation"
					}
				},
				{
					"sampler":151,
					"target":{
						"node":39,
						"path":"rotation"
					}
				},
				{
					"sampler":152,
					"target":{
						"node":39,
						"path":"scale"
					}
				},
				{
					"sampler":153,
					"target":{
						"node":46,
						"path":"translation"
					}
				},
				{
					"sampler":154,
					"target":{
						"node":46,
						"path":"rotation"
					}
				},
				{
					"sampler":155,
					"target":{
						"node":46,
						"path":"scale"
					}
				},
				{
					"sampler":156,
					"target":{
						"node":45,
						"path":"translation"
					}
				},
				{
					"sampler":157,
					"target":{
						"node":45,
						"path":"rotation"
					}
				},
				{
					"sampler":158,
					"target":{
						"node":45,
						"path":"scale"
					}
				},
				{
					"sampler":159,
					"target":{
						"node":44,
						"path":"translation"
					}
				},
				{
					"sampler":160,
					"target":{
						"node":44,
						"path":"rotation"
					}
				},
				{
					"sampler":161,
					"target":{
						"node":44,
						"path":"scale"
					}
				},
				{
					"sampler":162,
					"target":{
						"node":43,
						"path":"translation"
					}
				},
				{
					"sampler":163,
					"target":{
						"node":43,
						"path":"rotation"
					}
				},
				{
					"sampler":164,
					"target":{
						"node":43,
						"path":"scale"
					}
				},
				{
					"sampler":165,
					"target":{
						"node":58,
						"path":"translation"
					}
				},
				{
					"sampler":166,
					"target":{
						"node":58,
						"path":"rotation"
					}
				},
				{
					"sampler":167,
					"target":{
						"node":58,
						"path":"scale"
					}
				},
				{
					"sampler":168,
					"target":{
						"node":57,
						"path":"translation"
					}
				},
				{
					"sampler":169,
					"target":{
						"node":57,
						"path":"rotation"
					}
				},
				{
					"sampler":170,
					"target":{
						"node":57,
						"path":"scale"
					}
				},
				{
					"sampler":171,
					"target":{
						"node":56,
						"path":"translation"
					}
				},
				{
					"sampler":172,
					"target":{
						"node":56,
						"path":"rotation"
					}
				},
				{
					"sampler":173,
					"target":{
						"node":56,
						"path":"scale"
					}
				},
				{
					"sampler":174,
					"target":{
						"node":55,
						"path":"translation"
					}
				},
				{
					"sampler":175,
					"target":{
						"node":55,
						"path":"rotation"
					}
				},
				{
					"sampler":176,
					"target":{
						"node":55,
						"path":"scale"
					}
				},
				{
					"sampler":177,
					"target":{
						"node":54,
						"path":"translation"
					}
				},
				{
					"sampler":178,
					"target":{
						"node":54,
						"path":"rotation"
					}
				},
				{
					"sampler":179,
					"target":{
						"node":54,
						"path":"scale"
					}
				},
				{
					"sampler":180,
					"target":{
						"node":63,
						"path":"translation"
					}
				},
				{
					"sampler":181,
					"target":{
						"node":63,
						"path":"rotation"
					}
				},
				{
					"sampler":182,
					"target":{
						"node":63,
						"path":"scale"
					}
				},
				{
					"sampler":183,
					"target":{
						"node":62,
						"path":"translation"
					}
				},
				{
					"sampler":184,
					"target":{
						"node":62,
						"path":"rotation"
					}
				},
				{
					"sampler":185,
					"target":{
						"node":62,
						"path":"scale"
					}
				},
				{
					"sampler":186,
					"target":{
						"node":61,
						"path":"translation"
					}
				},
				{
					"sampler":187,
					"target":{
						"node":61,
						"path":"rotation"
					}
				},
				{
					"sampler":188,
					"target":{
						"node":61,
						"path":"scale"
					}
				},
				{
					"sampler":189,
					"target":{
						"node":60,
						"path":"translation"
					}
				},
				{
					"sampler":190,
					"target":{
						"node":60,
						"path":"rotation"
					}
				},
				{
					"sampler":191,
					"target":{
						"node":60,
						"path":"scale"
					}
				},
				{
					"sampler":192,
					"target":{
						"node":59,
						"path":"translation"
					}
				},
				{
					"sampler":193,
					"target":{
						"node":59,
						"path":"rotation"
					}
				},
				{
					"sampler":194,
					"target":{
						"node":59,
						"path":"scale"
					}
				}
			],
			"name":"Armature|mixamo.com|Layer0",
			"samplers":[
				{
					"input":19,
					"interpolation":"LINEAR",
					"output":20
				},
				{
					"input":19,
					"interpolation":"LINEAR",
					"output":21
				},
				{
					"input":22,
					"interpolation":"STEP",
					"output":23
				},
				{
					"input":22,
					"interpolation":"LINEAR",
					"output":24
				},
				{
					"input":19,
					"interpolation":"LINEAR",
					"output":25
				},
				{
					"input":22,
					"interpolation":"STEP",
					"output":26
				},
				{
					"input":22,
					"interpolation":"LINEAR",
					"output":27
				},
				{
					"input":19,
					"interpolation":"LINEAR",
					"output":28
				},
				{
					"input":22,
					"interpolation":"STEP",
					"output":29
				},
				{
					"input":22,
					"interpolation":"LINEAR",
					"output":30
				},
				{
					"input":19,
					"interpolation":"LINEAR",
					"output":31
				},
				{
					"input":22,
					"interpolation":"LINEAR",
					"output":32
				},
				{
					"input":22,
					"interpolation":"LINEAR",
					"output":33
				},
				{
					"input":19,
					"interpolation":"LINEAR",
					"output":34
				},
				{
					"input":22,
					"interpolation":"STEP",
					"output":35
				},
				{
					"input":22,
					"interpolation":"LINEAR",
					"output":36
				},
				{
					"input":19,
					"interpolation":"LINEAR",
					"output":37
				},
				{
					"input":22,
					"interpolation":"STEP",
					"output":38
				},
				{
					"input":22,
					"interpolation":"STEP",
					"output":39
				},
				{
					"input":22,
					"interpolation":"STEP",
					"output":40
				},
				{
					"input":22,
					"interpolation":"STEP",
					"output":41
				},
				{
					"input":22,
					"interpolation":"LINEAR",
					"output":42
				},
				{
					"input":19,
					"interpolation":"LINEAR",
					"output":43
				},
				{
					"input":22,
					"interpolation":"STEP",
					"output":44
				},
				{
					"input":22,
					"interpolation":"LINEAR",
					"output":45
				},
				{
					"input":19,
					"interpolation":"LINEAR",
					"output":46
				},
				{
					"input":22,
					"interpolation":"LINEAR",
					"output":47
				},
				{
					"input":22,
					"interpolation":"LINEAR",
					"output":48
				},
				{
					"input":19,
					"interpolation":"LINEAR",
					"output":49
				},
				{
					"input":22,
					"interpolation":"STEP",
					"output":50
				},
				{
					"input":22,
					"interpolation":"LINEAR",
					"output":51
				},
				{
					"input":19,
					"interpolation":"LINEAR",
					"output":52
				},
				{
					"input":22,
					"interpolation":"LINEAR",
					"output":53
				},
				{
					"input":22,
					"interpolation":"LINEAR",
					"output":54
				},
				{
					"input":22,
					"interpolation":"LINEAR",
					"output":55
				},
				{
					"input":22,
					"interpolation":"STEP",
					"output":56
				},
				{
					"input":22,
					"interpolation":"LINEAR",
					"output":57
				},
				{
					"input":22,
					"interpolation":"LINEAR",
					"output":58
				},
				{
					"input":22,
					"interpolation":"LINEAR",
					"output":59
				},
				{
					"input":22,
					"interpolation":"LINEAR",
					"output":60
				},
				{
					"input":22,
					"interpolation":"LINEAR",
					"output":61
				},
				{
					"input":22,
					"interpolation":"STEP",
					"output":62
				},
				{
					"input":22,
					"interpolation":"STEP",
					"output":63
				},
				{
					"input":22,
					"interpolation":"STEP",
					"output":64
				},
				{
					"input":22,
					"interpolation":"STEP",
					"output":65
				},
				{
					"input":22,
					"interpolation":"LINEAR",
					"output":66
				},
				{
					"input":19,
					"interpolation":"LINEAR",
					"output":67
				},
				{
					"input":22,
					"interpolation":"LINEAR",
					"output":68
				},
				{
					"input":22,
					"interpolation":"LINEAR",
					"output":69
				},
				{
					"input":19,
					"interpolation":"LINEAR",
					"output":70
				},
				{
					"input":22,
					"interpolation":"STEP",
					"output":71
				},
				{
					"input":22,
					"interpolation":"LINEAR",
					"output":72
				},
				{
					"input":22,
					"interpolation":"LINEAR",
					"output":73
				},
				{
					"input":22,
					"interpolation":"STEP",
					"output":74
				},
				{
					"input":22,
					"interpolation":"STEP",
					"output":75
				},
				{
					"input":22,
					"interpolation":"STEP",
					"output":76
				},
				{
					"input":22,
					"interpolation":"STEP",
					"output":77
				},
				{
					"input":22,
					"interpolation":"LINEAR",
					"output":78
				},
				{
					"input":19,
					"interpolation":"LINEAR",
					"output":79
				},
				{
					"input":22,
					"interpolation":"STEP",
					"output":80
				},
				{
					"input":22,
					"interpolation":"LINEAR",
					"output":81
				},
				{
					"input":19,
					"interpolation":"LINEAR",
					"output":82
				},
				{
					"input":22,
					"interpolation":"STEP",
					"output":83
				},
				{
					"input":22,
					"interpolation":"LINEAR",
					"output":84
				},
				{
					"input":22,
					"interpolation":"LINEAR",
					"output":85
				},
				{
					"input":22,
					"interpolation":"STEP",
					"output":86
				},
				{
					"input":22,
					"interpolation":"STEP",
					"output":87
				},
				{
					"input":22,
					"interpolation":"STEP",
					"output":88
				},
				{
					"input":22,
					"interpolation":"STEP",
					"output":89
				},
				{
					"input":22,
					"interpolation":"LINEAR",
					"output":90
				},
				{
					"input":19,
					"interpolation":"LINEAR",
					"output":91
				},
				{
					"input":22,
					"interpolation":"STEP",
					"output":92
				},
				{
					"input":22,
					"interpolation":"LINEAR",
					"output":93
				},
				{
					"input":19,
					"interpolation":"LINEAR",
					"output":94
				},
				{
					"input":22,
					"interpolation":"LINEAR",
					"output":95
				},
				{
					"input":22,
					"interpolation":"LINEAR",
					"output":96
				},
				{
					"input":22,
					"interpolation":"LINEAR",
					"output":97
				},
				{
					"input":22,
					"interpolation":"STEP",
					"output":98
				},
				{
					"input":22,
					"interpolation":"STEP",
					"output":99
				},
				{
					"input":22,
					"interpolation":"STEP",
					"output":100
				},
				{
					"input":22,
					"interpolation":"STEP",
					"output":101
				},
				{
					"input":22,
					"interpolation":"LINEAR",
					"output":102
				},
				{
					"input":19,
					"interpolation":"LINEAR",
					"output":103
				},
				{
					"input":22,
					"interpolation":"STEP",
					"output":104
				},
				{
					"input":22,
					"interpolation":"LINEAR",
					"output":105
				},
				{
					"input":19,
					"interpolation":"LINEAR",
					"output":106
				},
				{
					"input":22,
					"interpolation":"LINEAR",
					"output":107
				},
				{
					"input":22,
					"interpolation":"LINEAR",
					"output":108
				},
				{
					"input":22,
					"interpolation":"LINEAR",
					"output":109
				},
				{
					"input":22,
					"interpolation":"STEP",
					"output":110
				},
				{
					"input":22,
					"interpolation":"STEP",
					"output":111
				},
				{
					"input":22,
					"interpolation":"STEP",
					"output":112
				},
				{
					"input":22,
					"interpolation":"STEP",
					"output":113
				},
				{
					"input":22,
					"interpolation":"LINEAR",
					"output":114
				},
				{
					"input":19,
					"interpolation":"LINEAR",
					"output":115
				},
				{
					"input":22,
					"interpolation":"STEP",
					"output":116
				},
				{
					"input":22,
					"interpolation":"LINEAR",
					"output":117
				},
				{
					"input":19,
					"interpolation":"LINEAR",
					"output":118
				},
				{
					"input":22,
					"interpolation":"STEP",
					"output":119
				},
				{
					"input":22,
					"interpolation":"LINEAR",
					"output":120
				},
				{
					"input":19,
					"interpolation":"LINEAR",
					"output":121
				},
				{
					"input":22,
					"interpolation":"STEP",
					"output":122
				},
				{
					"input":22,
					"interpolation":"LINEAR",
					"output":123
				},
				{
					"input":19,
					"interpolation":"LINEAR",
					"output":124
				},
				{
					"input":22,
					"interpolation":"LINEAR",
					"output":125
				},
				{
					"input":22,
					"interpolation":"LINEAR",
					"output":126
				},
				{
					"input":22,
					"interpolation":"LINEAR",
					"output":127
				},
				{
					"input":22,
					"interpolation":"LINEAR",
					"output":128
				},
				{
					"input":22,
					"interpolation":"LINEAR",
					"output":129
				},
				{
					"input":22,
					"interpolation":"LINEAR",
					"output":130
				},
				{
					"input":22,
					"interpolation":"STEP",
					"output":131
				},
				{
					"input":22,
					"interpolation":"LINEAR",
					"output":132
				},
				{
					"input":22,
					"interpolation":"LINEAR",
					"output":133
				},
				{
					"input":22,
					"interpolation":"LINEAR",
					"output":134
				},
				{
					"input":22,
					"interpolation":"STEP",
					"output":135
				},
				{
					"input":22,
					"interpolation":"STEP",
					"output":136
				},
				{
					"input":22,
					"interpolation":"STEP",
					"output":137
				},
				{
					"input":22,
					"interpolation":"LINEAR",
					"output":138
				},
				{
					"input":19,
					"interpolation":"LINEAR",
					"output":139
				},
				{
					"input":22,
					"interpolation":"LINEAR",
					"output":140
				},
				{
					"input":22,
					"interpolation":"LINEAR",
					"output":141
				},
				{
					"input":19,
					"interpolation":"LINEAR",
					"output":142
				},
				{
					"input":22,
					"interpolation":"STEP",
					"output":143
				},
				{
					"input":22,
					"interpolation":"LINEAR",
					"output":144
				},
				{
					"input":22,
					"interpolation":"LINEAR",
					"output":145
				},
				{
					"input":22,
					"interpolation":"STEP",
					"output":146
				},
				{
					"input":22,
					"interpolation":"STEP",
					"output":147
				},
				{
					"input":22,
					"interpolation":"STEP",
					"output":148
				},
				{
					"input":22,
					"interpolation":"STEP",
					"output":41
				},
				{
					"input":22,
					"interpolation":"LINEAR",
					"output":149
				},
				{
					"input":19,
					"interpolation":"LINEAR",
					"output":150
				},
				{
					"input":22,
					"interpolation":"LINEAR",
					"output":151
				},
				{
					"input":22,
					"interpolation":"LINEAR",
					"output":152
				},
				{
					"input":19,
					"interpolation":"LINEAR",
					"output":153
				},
				{
					"input":22,
					"interpolation":"STEP",
					"output":154
				},
				{
					"input":22,
					"interpolation":"LINEAR",
					"output":155
				},
				{
					"input":22,
					"interpolation":"LINEAR",
					"output":156
				},
				{
					"input":22,
					"interpolation":"LINEAR",
					"output":157
				},
				{
					"input":22,
					"interpolation":"STEP",
					"output":158
				},
				{
					"input":22,
					"interpolation":"STEP",
					"output":159
				},
				{
					"input":22,
					"interpolation":"STEP",
					"output":160
				},
				{
					"input":22,
					"interpolation":"LINEAR",
					"output":161
				},
				{
					"input":19,
					"interpolation":"LINEAR",
					"output":162
				},
				{
					"input":22,
					"interpolation":"STEP",
					"output":163
				},
				{
					"input":22,
					"interpolation":"LINEAR",
					"output":164
				},
				{
					"input":19,
					"interpolation":"LINEAR",
					"output":165
				},
				{
					"input":22,
					"interpolation":"STEP",
					"output":166
				},
				{
					"input":22,
					"interpolation":"LINEAR",
					"output":167
				},
				{
					"input":22,
					"interpolation":"LINEAR",
					"output":168
				},
				{
					"input":22,
					"interpolation":"STEP",
					"output":169
				},
				{
					"input":22,
					"interpolation":"STEP",
					"output":170
				},
				{
					"input":22,
					"interpolation":"STEP",
					"output":171
				},
				{
					"input":22,
					"interpolation":"STEP",
					"output":172
				},
				{
					"input":22,
					"interpolation":"LINEAR",
					"output":173
				},
				{
					"input":19,
					"interpolation":"LINEAR",
					"output":174
				},
				{
					"input":22,
					"interpolation":"STEP",
					"output":175
				},
				{
					"input":22,
					"interpolation":"LINEAR",
					"output":176
				},
				{
					"input":19,
					"interpolation":"LINEAR",
					"output":177
				},
				{
					"input":22,
					"interpolation":"STEP",
					"output":178
				},
				{
					"input":22,
					"interpolation":"LINEAR",
					"output":179
				},
				{
					"input":22,
					"interpolation":"LINEAR",
					"output":180
				},
				{
					"input":22,
					"interpolation":"LINEAR",
					"output":181
				},
				{
					"input":22,
					"interpolation":"STEP",
					"output":182
				},
				{
					"input":22,
					"interpolation":"STEP",
					"output":183
				},
				{
					"input":22,
					"interpolation":"STEP",
					"output":184
				},
				{
					"input":22,
					"interpolation":"LINEAR",
					"output":185
				},
				{
					"input":19,
					"interpolation":"LINEAR",
					"output":186
				},
				{
					"input":22,
					"interpolation":"STEP",
					"output":187
				},
				{
					"input":22,
					"interpolation":"LINEAR",
					"output":188
				},
				{
					"input":19,
					"interpolation":"LINEAR",
					"output":189
				},
				{
					"input":22,
					"interpolation":"STEP",
					"output":190
				},
				{
					"input":22,
					"interpolation":"LINEAR",
					"output":191
				},
				{
					"input":19,
					"interpolation":"LINEAR",
					"output":192
				},
				{
					"input":22,
					"interpolation":"STEP",
					"output":193
				},
				{
					"input":22,
					"interpolation":"LINEAR",
					"output":194
				},
				{
					"input":19,
					"interpolation":"LINEAR",
					"output":195
				},
				{
					"input":22,
					"interpolation":"STEP",
					"output":196
				},
				{
					"input":22,
					"interpolation":"STEP",
					"output":197
				},
				{
					"input":22,
					"interpolation":"STEP",
					"output":198
				},
				{
					"input":22,
					"interpolation":"STEP",
					"output":199
				},
				{
					"input":22,
					"interpolation":"LINEAR",
					"output":200
				},
				{
					"input":19,
					"interpolation":"LINEAR",
					"output":201
				},
				{
					"input":22,
					"interpolation":"STEP",
					"output":202
				},
				{
					"input":22,
					"interpolation":"LINEAR",
					"output":203
				},
				{
					"input":19,
					"interpolation":"LINEAR",
					"output":204
				},
				{
					"input":22,
					"interpolation":"LINEAR",
					"output":205
				},
				{
					"input":22,
					"interpolation":"LINEAR",
					"output":206
				},
				{
					"input":19,
					"interpolation":"LINEAR",
					"output":207
				},
				{
					"input":22,
					"interpolation":"LINEAR",
					"output":208
				},
				{
					"input":22,
					"interpolation":"LINEAR",
					"output":209
				},
				{
					"input":19,
					"interpolation":"LINEAR",
					"output":210
				},
				{
					"input":22,
					"interpolation":"LINEAR",
					"output":211
				},
				{
					"input":22,
					"interpolation":"STEP",
					"output":212
				},
				{
					"input":22,
					"interpolation":"STEP",
					"output":213
				},
				{
					"input":22,
					"interpolation":"STEP",
					"output":214
				}
			]
		}
	],
	"materials":[
		{
			"alphaMode":"BLEND",
			"doubleSided":true,
			"extensions":{
				"KHR_materials_specular":{
					"specularTexture":{
						"index":0
					}
				}
			},
			"name":"Ch06_body",
			"normalTexture":{
				"index":1
			},
			"pbrMetallicRoughness":{
				"baseColorTexture":{
					"index":2
				},
				"metallicFactor":0.5,
				"metallicRoughnessTexture":{
					"index":3
				}
			}
		},
		{
			"alphaMode":"BLEND",
			"doubleSided":true,
			"extensions":{
				"KHR_materials_specular":{
					"specularColorFactor":[
						2.0,
						2.0,
						2.0
					]
				}
			},
			"name":"Ch06_eyelashes",
			"normalTexture":{
				"index":4
			},
			"pbrMetallicRoughness":{
				"baseColorTexture":{
					"index":5
				},
				"metallicFactor":0.5,
				"roughnessFactor":0.5527864098548889
			}
		},
		{
			"doubleSided":true,
			"extensions":{
				"KHR_materials_specular":{
					"specularTexture":{
						"index":6
					}
				}
			},
			"name":"Ch06_body1",
			"normalTexture":{
				"index":7
			},
			"pbrMetallicRoughness":{
				"baseColorTexture":{
					"index":8
				},
				"metallicFactor":0.5,
				"metallicRoughnessTexture":{
					"index":9
				}
			}
		}
	],
	"meshes":[
		{
			"name":"Mesh",
			"primitives":[
				{
					"attributes":{
						"POSITION":0,
						"NORMAL":1,
						"TEXCOORD_0":2,
						"JOINTS_0":3,
						"WEIGHTS_0":4
					},
					"indices":5,
					"material":0
				},
				{
					"attributes":{
						"POSITION":6,
						"NORMAL":7,
						"TEXCOORD_0":8,
						"JOINTS_0":9,
						"WEIGHTS_0":10
					},
					"indices":11,
					"material":1
				},
				{
					"attributes":{
						"POSITION":12,
						"NORMAL":13,
						"TEXCOORD_0":14,
						"JOINTS_0":15,
						"WEIGHTS_0":16
					},
					"indices":17,
					"material":2
				}
			]
		}
	],
	"textures":[
		{
			"sampler":0,
			"source":0
		},
		{
			"sampler":0,
			"source":1
		},
		{
			"sampler":0,
			"source":2
		},
		{
			"sampler":0,
			"source":3
		},
		{
			"sampler":0,
			"source":1
		},
		{
			"sampler":0,
			"source":2
		},
		{
			"sampler":0,
			"source":4
		},
		{
			"sampler":0,
			"source":5
		},
		{
			"sampler":0,
			"source":6
		},
		{
			"sampler":0,
			"source":7
		}
	],
	"images":[
		{
			"mimeType":"image/png",
			"name":"Ch06_1001_Specular",
			"uri":"Ch06_1001_Specular.png"
		},
		{
			"mimeType":"image/png",
			"name":"Ch06_1001_Normal",
			"uri":"Ch06_1001_Normal.png"
		},
		{
			"mimeType":"image/png",
			"name":"Ch06_1001_Diffuse",
			"uri":"Ch06_1001_Diffuse.png"
		},
		{
			"mimeType":"image/png",
			"name":"Ch06_1001_Glossiness",
			"uri":"Ch06_1001_Glossiness.png"
		},
		{
			"mimeType":"image/png",
			"name":"Ch06_1002_Specular",
			"uri":"Ch06_1002_Specular.png"
		},
		{
			"mimeType":"image/png",
			"name":"Ch06_1002_Normal",
			"uri":"Ch06_1002_Normal.png"
		},
		{
			"mimeType":"image/png",
			"name":"Ch06_1002_Diffuse",
			"uri":"Ch06_1002_Diffuse.png"
		},
		{
			"mimeType":"image/png",
			"name":"Ch06_1002_Glossiness",
			"uri":"Ch06_1002_Glossiness.png"
		}
	],
	"skins":[
		{
			"inverseBindMatrices":18,
			"joints":[
				64,
				53,
				52,
				51,
				2,
				1,
				0,
				26,
				25,
				24,
				23,
				6,
				5,
				4,
				3,
				10,
				9,
				8,
				7,
				14,
				13,
				12,
				11,
				18,
				17,
				16,
				15,
				22,
				21,
				20,
				19,
				50,
				49,
				48,
				47,
				30,
				29,
				28,
				27,
				34,
				33,
				32,
				31,
				38,
				37,
				36,
				35,
				42,
				41,
				40,
				39,
				46,
				45,
				44,
				43,
				58,
				57,
				56,
				55,
				54,
				63,
				62,
				61,
				60,
				59
			],
			"name":"Armature"
		}
	],
	"accessors":[
		{
			"bufferView":0,
			"componentType":5126,
			"count":25969,
			"max":[
				0.8901110887527466,
				1.82488214969635,
				0.16860759258270264
			],
			"min":[
				-0.8901110887527466,
				0.14040470123291016,
				-0.1674877107143402
			],
			"type":"VEC3"
		},
		{
			"bufferView":1,
			"componentType":5126,
			"count":25969,
			"type":"VEC3"
		},
		{
			"bufferView":2,
			"componentType":5126,
			"count":25969,
			"type":"VEC2"
		},
		{
			"bufferView":3,
			"componentType":5121,
			"count":25969,
			"type":"VEC4"
		},
		{
			"bufferView":4,
			"componentType":5126,
			"count":25969,
			"type":"VEC4"
		},
		{
			"bufferView":5,
			"componentType":5123,
			"count":140022,
			"type":"SCALAR"
		},
		{
			"bufferView":6,
			"componentType":5126,
			"count":553,
			"max":[
				0.050612349063158035,
				1.7054847478866577,
				0.11168801039457321
			],
			"min":[
				-0.04998692870140076,
				1.6874518394470215,
				0.09753952920436859
			],
			"type":"VEC3"
		},
		{
			"bufferView":7,
			"componentType":5126,
			"count":553,
			"type":"VEC3"
		},
		{
			"bufferView":8,
			"componentType":5126,
			"count":553,
			"type":"VEC2"
		},
		{
			"bufferView":9,
			"componentType":5121,
			"count":553,
			"type":"VEC4"
		},
		{
			"bufferView":10,
			"componentType":5126,
			"count":553,
			"type":"VEC4"
		},
		{
			"bufferView":11,
			"componentType":5123,
			"count":2112,
			"type":"SCALAR"
		},
		{
			"bufferView":12,
			"componentType":5126,
			"count":3735,
			"max":[
				0.22698087990283966,
				1.812067985534668,
				0.2145962119102478
			],
			"min":[
				-0.2269807904958725,
				-0.0020537867676466703,
				-0.11152013391256332
			],
			"type":"VEC3"
		},
		{
			"bufferView":13,
			"componentType":5126,
			"count":3735,
			"type":"VEC3"
		},
		{
			"bufferView":14,
			"componentType":5126,
			"count":3735,
			"type":"VEC2"
		},
		{
			"bufferView":15,
			"componentType":5121,
			"count":3735,
			"type":"VEC4"
		},
		{
			"bufferView":16,
			"componentType":5126,
			"count":3735,
			"type":"VEC4"
		},
		{
			"bufferView":17,
			"componentType":5123,
			"count":19500,
			"type":"SCALAR"
		},
		{
			"bufferView":18,
			"componentType":5126,
			"count":65,
			"type":"MAT4"
		},
		{
			"bufferView":19,
			"componentType":5126,
			"count":181,
			"max":[
				6.033333333333333
			],
			"min":[
				0.03333333333333333
			],
			"type":"SCALAR"
		},
		{
			"bufferView":20,
			"componentType":5126,
			"count":181,
			"type":"VEC3"
		},
		{
			"bufferView":21,
			"componentType":5126,
			"count":181,
			"type":"VEC4"
		},
		{
			"bufferView":22,
			"componentType":5126,
			"count":2,
			"max":[
				6.033333333333333
			],
			"min":[
				0.03333333333333333
			],
			"type":"SCALAR"
		},
		{
			"bufferView":23,
			"componentType":5126,
			"count":2,
			"type":"VEC3"
		},
		{
			"bufferView":24,
			"componentType":5126,
			"count":2,
			"type":"VEC3"
		},
		{
			"bufferView":25,
			"componentType":5126,
			"count":181,
			"type":"VEC4"
		},
		{
			"bufferView":26,
			"componentType":5126,
			"count":2,
			"type":"VEC3"
		},
		{
			"bufferView":27,
			"componentType":5126,
			"count":2,
			"type":"VEC3"
		},
		{
			"bufferView":28,
			"componentType":5126,
			"count":181,
			"type":"VEC4"
		},
		{
			"bufferView":29,
			"componentType":5126,
			"count":2,
			"type":"VEC3"
		},
		{
			"bufferView":30,
			"componentType":5126,
			"count":2,
			"type":"VEC3"
		},
		{
			"bufferView":31,
			"componentType":5126,
			"count":181,
			"type":"VEC4"
		},
		{
			"bufferView":32,
			"componentType":5126,
			"count":2,
			"type":"VEC3"
		},
		{
			"bufferView":33,
			"componentType":5126,
			"count":2,
			"type":"VEC3"
		},
		{
			"bufferView":34,
			"componentType":5126,
			"count":181,
			"type":"VEC4"
		},
		{
			"bufferView":35,
			"componentType":5126,
			"count":2,
			"type":"VEC3"
		},
		{
			"bufferView":36,
			"componentType":5126,
			"count":2,
			"type":"VEC3"
		},
		{
			"bufferView":37,
			"componentType":5126,
			"count":181,
			"type":"VEC4"
		},
		{
			"bufferView":38,
			"componentType":5126,
			"count":2,
			"type":"VEC3"
		},
		{
			"bufferView":39,
			"componentType":5126,
			"count":2,
			"type":"VEC3"
		},
		{
			"bufferView":40,
			"componentType":5126,
			"count":2,
			"type":"VEC4"
		},
		{
			"bufferView":41,
			"componentType":5126,
			"count":2,
			"type":"VEC3"
		},
		{
			"bufferView":42,
			"componentType":5126,
			"count":2,
			"type":"VEC3"
		},
		{
			"bufferView":43,
			"componentType":5126,
			"count":181,
			"type":"VEC4"
		},
		{
			"bufferView":44,
			"componentType":5126,
			"count":2,
			"type":"VEC3"
		},
		{
			"bufferView":45,
			"componentType":5126,
			"count":2,
			"type":"VEC3"
		},
		{
			"bufferView":46,
			"componentType":5126,
			"count":181,
			"type":"VEC4"
		},
		{
			"bufferView":47,
			"componentType":5126,
			"count":2,
			"type":"VEC3"
		},
		{
			"bufferView":48,
			"componentType":5126,
			"count":2,
			"type":"VEC3"
		},
		{
			"bufferView":49,
			"componentType":5126,
			"count":181,
			"type":"VEC4"
		},
		{
			"bufferView":50,
			"componentType":5126,
			"count":2,
			"type":"VEC3"
		},
		{
			"bufferView":51,
			"componentType":5126,
			"count":2,
			"type":"VEC3"
		},
		{
			"bufferView":52,
			"componentType":5126,
			"count":181,
			"type":"VEC4"
		},
		{
			"bufferView":53,
			"componentType":5126,
			"count":2,
			"type":"VEC3"
		},
		{
			"bufferView":54,
			"componentType":5126,
			"count":2,
			"type":"VEC3"
		},
		{
			"bufferView":55,
			"componentType":5126,
			"count":2,
			"type":"VEC4"
		},
		{
			"bufferView":56,
			"componentType":5126,
			"count":2,
			"type":"VEC3"
		},
		{
			"bufferView":57,
			"componentType":5126,
			"count":2,
			"type":"VEC3"
		},
		{
			"bufferView":58,
			"componentType":5126,
			"count":2,
			"type":"VEC4"
		},
		{
			"bufferView":59,
			"componentType":5126,
			"count":2,
			"type":"VEC3"
		},
		{
			"bufferView":60,
			"componentType":5126,
			"count":2,
			"type":"VEC3"
		},
		{
			"bufferView":61,
			"componentType":5126,
			"count":2,
			"type":"VEC4"
		},
		{
			"bufferView":62,
			"componentType":5126,
			"count":2,
			"type":"VEC3"
		},
		{
			"bufferView":63,
			"componentType":5126,
			"count":2,
			"type":"VEC3"
		},
		{
			"bufferView":64,
			"componentType":5126,
			"count":2,
			"type":"VEC4"
		},
		{
			"bufferView":65,
			"componentType":5126,
			"count":2,
			"type":"VEC3"
		},
		{
			"bufferView":66,
			"componentType":5126,
			"count":2,
			"type":"VEC3"
		},
		{
			"bufferView":67,
			"componentType":5126,
			"count":181,
			"type":"VEC4"
		},
		{
			"bufferView":68,
			"componentType":5126,
			"count":2,
			"type":"VEC3"
		},
		{
			"bufferView":69,
			"componentType":5126,
			"count":2,
			"type":"VEC3"
		},
		{
			"bufferView":70,
			"componentType":5126,
			"count":181,
			"type":"VEC4"
		},
		{
			"bufferView":71,
			"componentType":5126,
			"count":2,
			"type":"VEC3"
		},
		{
			"bufferView":72,
			"componentType":5126,
			"count":2,
			"type":"VEC3"
		},
		{
			"bufferView":73,
			"componentType":5126,
			"count":2,
			"type":"VEC4"
		},
		{
			"bufferView":74,
			"componentType":5126,
			"count":2,
			"type":"VEC3"
		},
		{
			"bufferView":75,
			"componentType":5126,
			"count":2,
			"type":"VEC3"
		},
		{
			"bufferView":76,
			"componentType":5126,
			"count":2,
			"type":"VEC4"
		},
		{
			"bufferView":77,
			"componentType":5126,
			"count":2,
			"type":"VEC3"
		},
		{
			"bufferView":78,
			"componentType":5126,
			"count":2,
			"type":"VEC3"
		},
		{
			"bufferView":79,
			"componentType":5126,
			"count":181,
			"type":"VEC4"
		},
		{
			"bufferView":80,
			"componentType":5126,
			"count":2,
			"type":"VEC3"
		},
		{
			"bufferView":81,
			"componentType":5126,
			"count":2,
			"type":"VEC3"
		},
		{
			"bufferView":82,
			"componentType":5126,
			"count":181,
			"type":"VEC4"
		},
		{
			"bufferView":83,
			"componentType":5126,
			"count":2,
			"type":"VEC3"
		},
		{
			"bufferView":84,
			"componentType":5126,
			"count":2,
			"type":"VEC3"
		},
		{
			"bufferView":85,
			"componentType":5126,
			"count":2,
			"type":"VEC4"
		},
		{
			"bufferView":86,
			"componentType":5126,
			"count":2,
			"type":"VEC3"
		},
		{
			"bufferView":87,
			"componentType":5126,
			"count":2,
			"type":"VEC3"
		},
		{
			"bufferView":88,
			"componentType":5126,
			"count":2,
			"type":"VEC4"
		},
		{
			"bufferView":89,
			"componentType":5126,
			"count":2,
			"type":"VEC3"
		},
		{
			"bufferView":90,
			"componentType":5126,
			"count":2,
			"type":"VEC3"
		},
		{
			"bufferView":91,
			"componentType":5126,
			"count":181,
			"type":"VEC4"
		},
		{
			"bufferView":92,
			"componentType":5126,
			"count":2,
			"type":"VEC3"
		},
		{
			"bufferView":93,
			"componentType":5126,
			"count":2,
			"type":"VEC3"
		},
		{
			"bufferView":94,
			"componentType":5126,
			"count":181,
			"type":"VEC4"
		},
		{
			"bufferView":95,
			"componentType":5126,
			"count":2,
			"type":"VEC3"
		},
		{
			"bufferView":96,
			"componentType":5126,
			"count":2,
			"type":"VEC3"
		},
		{
			"bufferView":97,
			"componentType":5126,
			"count":2,
			"type":"VEC4"
		},
		{
			"bufferView":98,
			"componentType":5126,
			"count":2,
			"type":"VEC3"
		},
		{
			"bufferView":99,
			"componentType":5126,
			"count":2,
			"type":"VEC3"
		},
		{
			"bufferView":100,
			"componentType":5126,
			"count":2,
			"type":"VEC4"
		},
		{
			"bufferView":101,
			"componentType":5126,
			"count":2,
			"type":"VEC3"
		},
		{
			"bufferView":102,
			"componentType":5126,
			"count":2,
			"type":"VEC3"
		},
		{
			"bufferView":103,
			"componentType":5126,
			"count":181,
			"type":"VEC4"
		},
		{
			"bufferView":104,
			"componentType":5126,
			"count":2,
			"type":"VEC3"
		},
		{
			"bufferView":105,
			"componentType":5126,
			"count":2,
			"type":"VEC3"
		},
		{
			"bufferView":106,
			"componentType":5126,
			"count":181,
			"type":"VEC4"
		},
		{
			"bufferView":107,
			"componentType":5126,
			"count":2,
			"type":"VEC3"
		},
		{
			"bufferView":108,
			"componentType":5126,
			"count":2,
			"type":"VEC3"
		},
		{
			"bufferView":109,
			"componentType":5126,
			"count":2,
			"type":"VEC4"
		},
		{
			"bufferView":110,
			"componentType":5126,
			"count":2,
			"type":"VEC3"
		},
		{
			"bufferView":111,
			"componentType":5126,
			"count":2,
			"type":"VEC3"
		},
		{
			"bufferView":112,
			"componentType":5126,
			"count":2,
			"type":"VEC4"
		},
		{
			"bufferView":113,
			"componentType":5126,
			"count":2,
			"type":"VEC3"
		},
		{
			"bufferView":114,
			"componentType":5126,
			"count":2,
			"type":"VEC3"
		},
		{
			"bufferView":115,
			"componentType":5126,
			"count":181,
			"type":"VEC4"
		},
		{
			"bufferView":116,
			"componentType":5126,
			"count":2,
			"type":"VEC3"
		},
		{
			"bufferView":117,
			"componentType":5126,
			"count":2,
			"type":"VEC3"
		},
		{
			"bufferView":118,
			"componentType":5126,
			"count":181,
			"type":"VEC4"
		},
		{
			"bufferView":119,
			"componentType":5126,
			"count":2,
			"type":"VEC3"
		},
		{
			"bufferView":120,
			"componentType":5126,
			"count":2,
			"type":"VEC3"
		},
		{
			"bufferView":121,
			"componentType":5126,
			"count":181,
			"type":"VEC4"
		},
		{
			"bufferView":122,
			"componentType":5126,
			"count":2,
			"type":"VEC3"
		},
		{
			"bufferView":123,
			"componentType":5126,
			"count":2,
			"type":"VEC3"
		},
		{
			"bufferView":124,
			"componentType":5126,
			"count":181,
			"type":"VEC4"
		},
		{
			"bufferView":125,
			"componentType":5126,
			"count":2,
			"type":"VEC3"
		},
		{
			"bufferView":126,
			"componentType":5126,
			"count":2,
			"type":"VEC3"
		},
		{
			"bufferView":127,
			"componentType":5126,
			"count":2,
			"type":"VEC4"
		},
		{
			"bufferView":128,
			"componentType":5126,
			"count":2,
			"type":"VEC3"
		},
		{
			"bufferView":129,
			"componentType":5126,
			"count":2,
			"type":"VEC3"
		},
		{
			"bufferView":130,
			"componentType":5126,
			"count":2,
			"type":"VEC4"
		},
		{
			"bufferView":131,
			"componentType":5126,
			"count":2,
			"type":"VEC3"
		},
		{
			"bufferView":132,
			"componentType":5126,
			"count":2,
			"type":"VEC3"
		},
		{
			"bufferView":133,
			"componentType":5126,
			"count":2,
			"type":"VEC4"
		},
		{
			"bufferView":134,
			"componentType":5126,
			"count":2,
			"type":"VEC3"
		},
		{
			"bufferView":135,
			"componentType":5126,
			"count":2,
			"type":"VEC3"
		},
		{
			"bufferView":136,
			"componentType":5126,
			"count":2,
			"type":"VEC4"
		},
		{
			"bufferView":137,
			"componentType":5126,
			"count":2,
			"type":"VEC3"
		},
		{
			"bufferView":138,
			"componentType":5126,
			"count":2,
			"type":"VEC3"
		},
		{
			"bufferView":139,
			"componentType":5126,
			"count":181,
			"type":"VEC4"
		},
		{
			"bufferView":140,
			"componentType":5126,
			"count":2,
			"type":"VEC3"
		},
		{
			"bufferView":141,
			"componentType":5126,
			"count":2,
			"type":"VEC3"
		},
		{
			"bufferView":142,
			"componentType":5126,
			"count":181,
			"type":"VEC4"
		},
		{
			"bufferView":143,
			"componentType":5126,
			"count":2,
			"type":"VEC3"
		},
		{
			"bufferView":144,
			"componentType":5126,
			"count":2,
			"type":"VEC3"
		},
		{
			"bufferView":145,
			"componentType":5126,
			"count":2,
			"type":"VEC4"
		},
		{
			"bufferView":146,
			"componentType":5126,
			"count":2,
			"type":"VEC3"
		},
		{
			"bufferView":147,
			"componentType":5126,
			"count":2,
			"type":"VEC3"
		},
		{
			"bufferView":148,
			"componentType":5126,
			"count":2,
			"type":"VEC4"
		},
		{
			"bufferView":149,
			"componentType":5126,
			"count":2,
			"type":"VEC3"
		},
		{
			"bufferView":150,
			"componentType":5126,
			"count":181,
			"type":"VEC4"
		},
		{
			"bufferView":151,
			"componentType":5126,
			"count":2,
			"type":"VEC3"
		},
		{
			"bufferView":152,
			"componentType":5126,
			"count":2,
			"type":"VEC3"
		},
		{
			"bufferView":153,
			"componentType":5126,
			"count":181,
			"type":"VEC4"
		},
		{
			"bufferView":154,
			"componentType":5126,
			"count":2,
			"type":"VEC3"
		},
		{
			"bufferView":155,
			"componentType":5126,
			"count":2,
			"type":"VEC3"
		},
		{
			"bufferView":156,
			"componentType":5126,
			"count":2,
			"type":"VEC4"
		},
		{
			"bufferView":157,
			"componentType":5126,
			"count":2,
			"type":"VEC3"
		},
		{
			"bufferView":158,
			"componentType":5126,
			"count":2,
			"type":"VEC3"
		},
		{
			"bufferView":159,
			"componentType":5126,
			"count":2,
			"type":"VEC4"
		},
		{
			"bufferView":160,
			"componentType":5126,
			"count":2,
			"type":"VEC3"
		},
		{
			"bufferView":161,
			"componentType":5126,
			"count":2,
			"type":"VEC3"
		},
		{
			"bufferView":162,
			"componentType":5126,
			"count":181,
			"type":"VEC4"
		},
		{
			"bufferView":163,
			"componentType":5126,
			"count":2,
			"type":"VEC3"
		},
		{
			"bufferView":164,
			"componentType":5126,
			"count":2,
			"type":"VEC3"
		},
		{
			"bufferView":165,
			"componentType":5126,
			"count":181,
			"type":"VEC4"
		},
		{
			"bufferView":166,
			"componentType":5126,
			"count":2,
			"type":"VEC3"
		},
		{
			"bufferView":167,
			"componentType":5126,
			"count":2,
			"type":"VEC3"
		},
		{
			"bufferView":168,
			"componentType":5126,
			"count":2,
			"type":"VEC4"
		},
		{
			"bufferView":169,
			"componentType":5126,
			"count":2,
			"type":"VEC3"
		},
		{
			"bufferView":170,
			"componentType":5126,
			"count":2,
			"type":"VEC3"
		},
		{
			"bufferView":171,
			"componentType":5126,
			"count":2,
			"type":"VEC4"
		},
		{
			"bufferView":172,
			"componentType":5126,
			"count":2,
			"type":"VEC3"
		},
		{
			"bufferView":173,
			"componentType":5126,
			"count":2,
			"type":"VEC3"
		},
		{
			"bufferView":174,
			"componentType":5126,
			"count":181,
			"type":"VEC4"
		},
		{
			"bufferView":175,
			"componentType":5126,
			"count":2,
			"type":"VEC3"
		},
		{
			"bufferView":176,
			"componentType":5126,
			"count":2,
			"type":"VEC3"
		},
		{
			"bufferView":177,
			"componentType":5126,
			"count":181,
			"type":"VEC4"
		},
		{
			"bufferView":178,
			"componentType":5126,
			"count":2,
			"type":"VEC3"
		},
		{
			"bufferView":179,
			"componentType":5126,
			"count":2,
			"type":"VEC3"
		},
		{
			"bufferView":180,
			"componentType":5126,
			"count":2,
			"type":"VEC4"
		},
		{
			"bufferView":181,
			"componentType":5126,
			"count":2,
			"type":"VEC3"
		},
		{
			"bufferView":182,
			"componentType":5126,
			"count":2,
			"type":"VEC3"
		},
		{
			"bufferView":183,
			"componentType":5126,
			"count":2,
			"type":"VEC4"
		},
		{
			"bufferView":184,
			"componentType":5126,
			"count":2,
			"type":"VEC3"
		},
		{
			"bufferView":185,
			"componentType":5126,
			"count":2,
			"type":"VEC3"
		},
		{
			"bufferView":186,
			"componentType":5126,
			"count":181,
			"type":"VEC4"
		},
		{
			"bufferView":187,
			"componentType":5126,
			"count":2,
			"type":"VEC3"
		},
		{
			"bufferView":188,
			"componentType":5126,
			"count":2,
			"type":"VEC3"
		},
		{
			"bufferView":189,
			"componentType":5126,
			"count":181,
			"type":"VEC4"
		},
		{
			"bufferView":190,
			"componentType":5126,
			"count":2,
			"type":"VEC3"
		},
		{
			"bufferView":191,
			"componentType":5126,
			"count":2,
			"type":"VEC3"
		},
		{
			"bufferView":192,
			"componentType":5126,
			"count":181,
			"type":"VEC4"
		},
		{
			"bufferView":193,
			"componentType":5126,
			"count":2,
			"type":"VEC3"
		},
		{
			"bufferView":194,
			"componentType":5126,
			"count":2,
			"type":"VEC3"
		},
		{
			"bufferView":195,
			"componentType":5126,
			"count":181,
			"type":"VEC4"
		},
		{
			"bufferView":196,
			"componentType":5126,
			"count":2,
			"type":"VEC3"
		},
		{
			"bufferView":197,
			"componentType":5126,
			"count":2,
			"type":"VEC3"
		},
		{
			"bufferView":198,
			"componentType":5126,
			"count":2,
			"type":"VEC4"
		},
		{
			"bufferView":199,
			"componentType":5126,
			"count":2,
			"type":"VEC3"
		},
		{
			"bufferView":200,
			"componentType":5126,
			"count":2,
			"type":"VEC3"
		},
		{
			"bufferView":201,
			"componentType":5126,
			"count":181,
			"type":"VEC4"
		},
		{
			"bufferView":202,
			"componentType":5126,
			"count":2,
			"type":"VEC3"
		},
		{
			"bufferView":203,
			"componentType":5126,
			"count":2,
			"type":"VEC3"
		},
		{
			"bufferView":204,
			"componentType":5126,
			"count":181,
			"type":"VEC4"
		},
		{
			"bufferView":205,
			"componentType":5126,
			"count":2,
			"type":"VEC3"
		},
		{
			"bufferView":206,
			"componentType":5126,
			"count":2,
			"type":"VEC3"
		},
		{
			"bufferView":207,
			"componentType":5126,
			"count":181,
			"type":"VEC4"
		},
		{
			"bufferView":208,
			"componentType":5126,
			"count":2,
			"type":"VEC3"
		},
		{
			"bufferView":209,
			"componentType":5126,
			"count":2,
			"type":"VEC3"
		},
		{
			"bufferView":210,
			"componentType":5126,
			"count":181,
			"type":"VEC4"
		},
		{
			"bufferView":211,
			"componentType":5126,
			"count":2,
			"type":"VEC3"
		},
		{
			"bufferView":212,
			"componentType":5126,
			"count":2,
			"type":"VEC3"
		},
		{
			"bufferView":213,
			"componentType":5126,
			"count":2,
			"type":"VEC4"
		},
		{
			"bufferView":214,
			"componentType":5126,
			"count":2,
			"type":"VEC3"
		}
	],
	"bufferViews":[
		{
			"buffer":0,
			"byteLength":311628,
			"byteOffset":0,
			"target":34962
		},
		{
			"buffer":0,
			"byteLength":311628,
			"byteOffset":311628,
			"target":34962
		},
		{
			"buffer":0,
			"byteLength":207752,
			"byteOffset":623256,
			"target":34962
		},
		{
			"buffer":0,
			"byteLength":103876,
			"byteOffset":831008,
			"target":34962
		},
		{
			"buffer":0,
			"byteLength":415504,
			"byteOffset":934884,
			"target":34962
		},
		{
			"buffer":0,
			"byteLength":280044,
			"byteOffset":1350388,
			"target":34963
		},
		{
			"buffer":0,
			"byteLength":6636,
			"byteOffset":1630432,
			"target":34962
		},
		{
			"buffer":0,
			"byteLength":6636,
			"byteOffset":1637068,
			"target":34962
		},
		{
			"buffer":0,
			"byteLength":4424,
			"byteOffset":1643704,
			"target":34962
		},
		{
			"buffer":0,
			"byteLength":2212,
			"byteOffset":1648128,
			"target":34962
		},
		{
			"buffer":0,
			"byteLength":8848,
			"byteOffset":1650340,
			"target":34962
		},
		{
			"buffer":0,
			"byteLength":4224,
			"byteOffset":1659188,
			"target":34963
		},
		{
			"buffer":0,
			"byteLength":44820,
			"byteOffset":1663412,
			"target":34962
		},
		{
			"buffer":0,
			"byteLength":44820,
			"byteOffset":1708232,
			"target":34962
		},
		{
			"buffer":0,
			"byteLength":29880,
			"byteOffset":1753052,
			"target":34962
		},
		{
			"buffer":0,
			"byteLength":14940,
			"byteOffset":1782932,
			"target":34962
		},
		{
			"buffer":0,
			"byteLength":59760,
			"byteOffset":1797872,
			"target":34962
		},
		{
			"buffer":0,
			"byteLength":39000,
			"byteOffset":1857632,
			"target":34963
		},
		{
			"buffer":0,
			"byteLength":4160,
			"byteOffset":1896632
		},
		{
			"buffer":0,
			"byteLength":724,
			"byteOffset":1900792
		},
		{
			"buffer":0,
			"byteLength":2172,
			"byteOffset":1901516
		},
		{
			"buffer":0,
			"byteLength":2896,
			"byteOffset":1903688
		},
		{
			"buffer":0,
			"byteLength":8,
			"byteOffset":1906584
		},
		{
			"buffer":0,
			"byteLength":24,
			"byteOffset":1906592
		},
		{
			"buffer":0,
			"byteLength":24,
			"byteOffset":1906616
		},
		{
			"buffer":0,
			"byteLength":2896,
			"byteOffset":1906640
		},
		{
			"buffer":0,
			"byteLength":24,
			"byteOffset":1909536
		},
		{
			"buffer":0,
			"byteLength":24,
			"byteOffset":1909560
		},
		{
			"buffer":0,
			"byteLength":2896,
			"byteOffset":1909584
		},
		{
			"buffer":0,
			"byteLength":24,
			"byteOffset":1912480
		},
		{
			"buffer":0,
			"byteLength":24,
			"byteOffset":1912504
		},
		{
			"buffer":0,
			"byteLength":2896,
			"byteOffset":1912528
		},
		{
			"buffer":0,
			"byteLength":24,
			"byteOffset":1915424
		},
		{
			"buffer":0,
			"byteLength":24,
			"byteOffset":1915448
		},
		{
			"buffer":0,
			"byteLength":2896,
			"byteOffset":1915472
		},
		{
			"buffer":0,
			"byteLength":24,
			"byteOffset":1918368
		},
		{
			"buffer":0,
			"byteLength":24,
			"byteOffset":1918392
		},
		{
			"buffer":0,
			"byteLength":2896,
			"byteOffset":1918416
		},
		{
			"buffer":0,
			"byteLength":24,
			"byteOffset":1921312
		},
		{
			"buffer":0,
			"byteLength":24,
			"byteOffset":1921336
		},
		{
			"buffer":0,
			"byteLength":32,
			"byteOffset":1921360
		},
		{
			"buffer":0,
			"byteLength":24,
			"byteOffset":1921392
		},
		{
			"buffer":0,
			"byteLength":24,
			"byteOffset":1921416
		},
		{
			"buffer":0,
			"byteLength":2896,
			"byteOffset":1921440
		},
		{
			"buffer":0,
			"byteLength":24,
			"byteOffset":1924336
		},
		{
			"buffer":0,
			"byteLength":24,
			"byteOffset":1924360
		},
		{
			"buffer":0,
			"byteLength":2896,
			"byteOffset":1924384
		},
		{
			"buffer":0,
			"byteLength":24,
			"byteOffset":1927280
		},
		{
			"buffer":0,
			"byteLength":24,
			"byteOffset":1927304
		},
		{
			"buffer":0,
			"byteLength":2896,
			"byteOffset":1927328
		},
		{
			"buffer":0,
			"byteLength":24,
			"byteOffset":1930224
		},
		{
			"buffer":0,
			"byteLength":24,
			"byteOffset":1930248
		},
		{
			"buffer":0,
			"byteLength":2896,
			"byteOffset":1930272
		},
		{
			"buffer":0,
			"byteLength":24,
			"byteOffset":1933168
		},
		{
			"buffer":0,
			"byteLength":24,
			"byteOffset":1933192
		},
		{
			"buffer":0,
			"byteLength":32,
			"byteOffset":1933216
		},
		{
			"buffer":0,
			"byteLength":24,
			"byteOffset":1933248
		},
		{
			"buffer":0,
			"byteLength":24,
			"byteOffset":1933272
		},
		{
			"buffer":0,
			"byteLength":32,
			"byteOffset":1933296
		},
		{
			"buffer":0,
			"byteLength":24,
			"byteOffset":1933328
		},
		{
			"buffer":0,
			"byteLength":24,
			"byteOffset":1933352
		},
		{
			"buffer":0,
			"byteLength":32,
			"byteOffset":1933376
		},
		{
			"buffer":0,
			"byteLength":24,
			"byteOffset":1933408
		},
		{
			"buffer":0,
			"byteLength":24,
			"byteOffset":1933432
		},
		{
			"buffer":0,
			"byteLength":32,
			"byteOffset":1933456
		},
		{
			"buffer":0,
			"byteLength":24,
			"byteOffset":1933488
		},
		{
			"buffer":0,
			"byteLength":24,
			"byteOffset":1933512
		},
		{
			"buffer":0,
			"byteLength":2896,
			"byteOffset":1933536
		},
		{
			"buffer":0,
			"byteLength":24,
			"byteOffset":1936432
		},
		{
			"buffer":0,
			"byteLength":24,
			"byteOffset":1936456
		},
		{
			"buffer":0,
			"byteLength":2896,
			"byteOffset":1936480
		},
		{
			"buffer":0,
			"byteLength":24,
			"byteOffset":1939376
		},
		{
			"buffer":0,
			"byteLength":24,
			"byteOffset":1939400
		},
		{
			"buffer":0,
			"byteLength":32,
			"byteOffset":1939424
		},
		{
			"buffer":0,
			"byteLength":24,
			"byteOffset":1939456
		},
		{
			"buffer":0,
			"byteLength":24,
			"byteOffset":1939480
		},
		{
			"buffer":0,
			"byteLength":32,
			"byteOffset":1939504
		},
		{
			"buffer":0,
			"byteLength":24,
			"byteOffset":1939536
		},
		{
			"buffer":0,
			"byteLength":24,
			"byteOffset":1939560
		},
		{
			"buffer":0,
			"byteLength":2896,
			"byteOffset":1939584
		},
		{
			"buffer":0,
			"byteLength":24,
			"byteOffset":1942480
		},
		{
			"buffer":0,
			"byteLength":24,
			"byteOffset":1942504
		},
		{
			"buffer":0,
			"byteLength":2896,
			"byteOffset":1942528
		},
		{
			"buffer":0,
			"byteLength":24,
			"byteOffset":1945424
		},
		{
			"buffer":0,
			"byteLength":24,
			"byteOffset":1945448
		},
		{
			"buffer":0,
			"byteLength":32,
			"byteOffset":1945472
		},
		{
			"buffer":0,
			"byteLength":24,
			"byteOffset":1945504
		},
		{
			"buffer":0,
			"byteLength":24,
			"byteOffset":1945528
		},
		{
			"buffer":0,
			"byteLength":32,
			"byteOffset":1945552
		},
		{
			"buffer":0,
			"byteLength":24,
			"byteOffset":1945584
		},
		{
			"buffer":0,
			"byteLength":24,
			"byteOffset":1945608
		},
		{
			"buffer":0,
			"byteLength":2896,
			"byteOffset":1945632
		},
		{
			"buffer":0,
			"byteLength":24,
			"byteOffset":1948528
		},
		{
			"buffer":0,
			"byteLength":24,
			"byteOffset":1948552
		},
		{
			"buffer":0,
			"byteLength":2896,
			"byteOffset":1948576
		},
		{
			"buffer":0,
			"byteLength":24,
			"byteOffset":1951472
		},
		{
			"buffer":0,
			"byteLength":24,
			"byteOffset":1951496
		},
		{
			"buffer":0,
			"byteLength":32,
			"byteOffset":1951520
		},
		{
			"buffer":0,
			"byteLength":24,
			"byteOffset":1951552
		},
		{
			"buffer":0,
			"byteLength":24,
			"byteOffset":1951576
		},
		{
			"buffer":0,
			"byteLength":32,
			"byteOffset":1951600
		},
		{
			"buffer":0,
			"byteLength":24,
			"byteOffset":1951632
		},
		{
			"buffer":0,
			"byteLength":24,
			"byteOffset":1951656
		},
		{
			"buffer":0,
			"byteLength":2896,
			"byteOffset":1951680
		},
		{
			"buffer":0,
			"byteLength":24,
			"byteOffset":1954576
		},
		{
			"buffer":0,
			"byteLength":24,
			"byteOffset":1954600
		},
		{
			"buffer":0,
			"byteLength":2896,
			"byteOffset":1954624
		},
		{
			"buffer":0,
			"byteLength":24,
			"byteOffset":1957520
		},
		{
			"buffer":0,
			"byteLength":24,
			"byteOffset":1957544
		},
		{
			"buffer":0,
			"byteLength":32,
			"byteOffset":1957568
		},
		{
			"buffer":0,
			"byteLength":24,
			"byteOffset":1957600
		},
		{
			"buffer":0,
			"byteLength":24,
			"byteOffset":1957624
		},
		{
			"buffer":0,
			"byteLength":32,
			"byteOffset":1957648
		},
		{
			"buffer":0,
			"byteLength":24,
			"byteOffset":1957680
		},
		{
			"buffer":0,
			"byteLength":24,
			"byteOffset":1957704
		},
		{
			"buffer":0,
			"byteLength":2896,
			"byteOffset":1957728
		},
		{
			"buffer":0,
			"byteLength":24,
			"byteOffset":1960624
		},
		{
			"buffer":0,
			"byteLength":24,
			"byteOffset":1960648
		},
		{
			"buffer":0,
			"byteLength":2896,
			"byteOffset":1960672
		},
		{
			"buffer":0,
			"byteLength":24,
			"byteOffset":1963568
		},
		{
			"buffer":0,
			"byteLength":24,
			"byteOffset":1963592
		},
		{
			"buffer":0,
			"byteLength":2896,
			"byteOffset":1963616
		},
		{
			"buffer":0,
			"byteLength":24,
			"byteOffset":1966512
		},
		{
			"buffer":0,
			"byteLength":24,
			"byteOffset":1966536
		},
		{
			"buffer":0,
			"byteLength":2896,
			"byteOffset":1966560
		},
		{
			"buffer":0,
			"byteLength":24,
			"byteOffset":1969456
		},
		{
			"buffer":0,
			"byteLength":24,
			"byteOffset":1969480
		},
		{
			"buffer":0,
			"byteLength":32,
			"byteOffset":1969504
		},
		{
			"buffer":0,
			"byteLength":24,
			"byteOffset":1969536
		},
		{
			"buffer":0,
			"byteLength":24,
			"byteOffset":1969560
		},
		{
			"buffer":0,
			"byteLength":32,
			"byteOffset":1969584
		},
		{
			"buffer":0,
			"byteLength":24,
			"byteOffset":1969616
		},
		{
			"buffer":0,
			"byteLength":24,
			"byteOffset":1969640
		},
		{
			"buffer":0,
			"byteLength":32,
			"byteOffset":1969664
		},
		{
			"buffer":0,
			"byteLength":24,
			"byteOffset":1969696
		},
		{
			"buffer":0,
			"byteLength":24,
			"byteOffset":1969720
		},
		{
			"buffer":0,
			"byteLength":32,
			"byteOffset":1969744
		},
		{
			"buffer":0,
			"byteLength":24,
			"byteOffset":1969776
		},
		{
			"buffer":0,
			"byteLength":24,
			"byteOffset":1969800
		},
		{
			"buffer":0,
			"byteLength":2896,
			"byteOffset":1969824
		},
		{
			"buffer":0,
			"byteLength":24,
			"byteOffset":1972720
		},
		{
			"buffer":0,
			"byteLength":24,
			"byteOffset":1972744
		},
		{
			"buffer":0,
			"byteLength":2896,
			"byteOffset":1972768
		},
		{
			"buffer":0,
			"byteLength":24,
			"byteOffset":1975664
		},
		{
			"buffer":0,
			"byteLength":24,
			"byteOffset":1975688
		},
		{
			"buffer":0,
			"byteLength":32,
			"byteOffset":1975712
		},
		{
			"buffer":0,
			"byteLength":24,
			"byteOffset":1975744
		},
		{
			"buffer":0,
			"byteLength":24,
			"byteOffset":1975768
		},
		{
			"buffer":0,
			"byteLength":32,
			"byteOffset":1975792
		},
		{
			"buffer":0,
			"byteLength":24,
			"byteOffset":1975824
		},
		{
			"buffer":0,
			"byteLength":2896,
			"byteOffset":1975848
		},
		{
			"buffer":0,
			"byteLength":24,
			"byteOffset":1978744
		},
		{
			"buffer":0,
			"byteLength":24,
			"byteOffset":1978768
		},
		{
			"buffer":0,
			"byteLength":2896,
			"byteOffset":1978792
		},
		{
			"buffer":0,
			"byteLength":24,
			"byteOffset":1981688
		},
		{
			"buffer":0,
			"byteLength":24,
			"byteOffset":1981712
		},
		{
			"buffer":0,
			"byteLength":32,
			"byteOffset":1981736
		},
		{
			"buffer":0,
			"byteLength":24,
			"byteOffset":1981768
		},
		{
			"buffer":0,
			"byteLength":24,
			"byteOffset":1981792
		},
		{
			"buffer":0,
			"byteLength":32,
			"byteOffset":1981816
		},
		{
			"buffer":0,
			"byteLength":24,
			"byteOffset":1981848
		},
		{
			"buffer":0,
			"byteLength":24,
			"byteOffset":1981872
		},
		{
			"buffer":0,
			"byteLength":2896,
			"byteOffset":1981896
		},
		{
			"buffer":0,
			"byteLength":24,
			"byteOffset":1984792
		},
		{
			"buffer":0,
			"byteLength":24,
			"byteOffset":1984816
		},
		{
			"buffer":0,
			"byteLength":2896,
			"byteOffset":1984840
		},
		{
			"buffer":0,
			"byteLength":24,
			"byteOffset":1987736
		},
		{
			"buffer":0,
			"byteLength":24,
			"byteOffset":1987760
		},
		{
			"buffer":0,
			"byteLength":32,
			"byteOffset":1987784
		},
		{
			"buffer":0,
			"byteLength":24,
			"byteOffset":1987816
		},
		{
			"buffer":0,
			"byteLength":24,
			"byteOffset":1987840
		},
		{
			"buffer":0,
			"byteLength":32,
			"byteOffset":1987864
		},
		{
			"buffer":0,
			"byteLength":24,
			"byteOffset":1987896
		},
		{
			"buffer":0,
			"byteLength":24,
			"byteOffset":1987920
		},
		{
			"buffer":0,
			"byteLength":2896,
			"byteOffset":1987944
		},
		{
			"buffer":0,
			"byteLength":24,
			"byteOffset":1990840
		},
		{
			"buffer":0,
			"byteLength":24,
			"byteOffset":1990864
		},
		{
			"buffer":0,
			"byteLength":2896,
			"byteOffset":1990888
		},
		{
			"buffer":0,
			"byteLength":24,
			"byteOffset":1993784
		},
		{
			"buffer":0,
			"byteLength":24,
			"byteOffset":1993808
		},
		{
			"buffer":0,
			"byteLength":32,
			"byteOffset":1993832
		},
		{
			"buffer":0,
			"byteLength":24,
			"byteOffset":1993864
		},
		{
			"buffer":0,
			"byteLength":24,
			"byteOffset":1993888
		},
		{
			"buffer":0,
			"byteLength":32,
			"byteOffset":1993912
		},
		{
			"buffer":0,
			"byteLength":24,
			"byteOffset":1993944
		},
		{
			"buffer":0,
			"byteLength":24,
			"byteOffset":1993968
		},
		{
			"buffer":0,
			"byteLength":2896,
			"byteOffset":1993992
		},
		{
			"buffer":0,
			"byteLength":24,
			"byteOffset":1996888
		},
		{
			"buffer":0,
			"byteLength":24,
			"byteOffset":1996912
		},
		{
			"buffer":0,
			"byteLength":2896,
			"byteOffset":1996936
		},
		{
			"buffer":0,
			"byteLength":24,
			"byteOffset":1999832
		},
		{
			"buffer":0,
			"byteLength":24,
			"byteOffset":1999856
		},
		{
			"buffer":0,
			"byteLength":2896,
			"byteOffset":1999880
		},
		{
			"buffer":0,
			"byteLength":24,
			"byteOffset":2002776
		},
		{
			"buffer":0,
			"byteLength":24,
			"byteOffset":2002800
		},
		{
			"buffer":0,
			"byteLength":2896,
			"byteOffset":2002824
		},
		{
			"buffer":0,
			"byteLength":24,
			"byteOffset":2005720
		},
		{
			"buffer":0,
			"byteLength":24,
			"byteOffset":2005744
		},
		{
			"buffer":0,
			"byteLength":32,
			"byteOffset":2005768
		},
		{
			"buffer":0,
			"byteLength":24,
			"byteOffset":2005800
		},
		{
			"buffer":0,
			"byteLength":24,
			"byteOffset":2005824
		},
		{
			"buffer":0,
			"byteLength":2896,
			"byteOffset":2005848
		},
		{
			"buffer":0,
			"byteLength":24,
			"byteOffset":2008744
		},
		{
			"buffer":0,
			"byteLength":24,
			"byteOffset":2008768
		},
		{
			"buffer":0,
			"byteLength":2896,
			"byteOffset":2008792
		},
		{
			"buffer":0,
			"byteLength":24,
			"byteOffset":2011688
		},
		{
			"buffer":0,
			"byteLength":24,
			"byteOffset":2011712
		},
		{
			"buffer":0,
			"byteLength":2896,
			"byteOffset":2011736
		},
		{
			"buffer":0,
			"byteLength":24,
			"byteOffset":2014632
		},
		{
			"buffer":0,
			"byteLength":24,
			"byteOffset":2014656
		},
		{
			"buffer":0,
			"byteLength":2896,
			"byteOffset":2014680
		},
		{
			"buffer":0,
			"byteLength":24,
			"byteOffset":2017576
		},
		{
			"buffer":0,
			"byteLength":24,
			"byteOffset":2017600
		},
		{
			"buffer":0,
			"byteLength":32,
			"byteOffset":2017624
		},
		{
			"buffer":0,
			"byteLength":24,
			"byteOffset":2017656
		}
	],
	"samplers":[
		{
			"magFilter":9729,
			"minFilter":9987
		}
	],
	"buffers":[
		{
			"byteLength":2017680,
			"uri":"model.bin"
		}
	]
}
